G04 ================== begin FILE IDENTIFICATION RECORD ==================*
G04 Layout Name:  C:/Users/53466/Desktop/RAY/Hand-0518-a.brd*
G04 Film Name:    BOTTOM*
G04 File Format:  Gerber RS274X*
G04 File Origin:  Cadence Allegro 16.6-2015-S088*
G04 Origin Date:  Tue May 18 18:12:47 2021*
G04 *
G04 Layer:  MANUFACTURING/PHOTOPLOT_OUTLINE*
G04 Layer:  MANUFACTURING/PEN3-BOT*
G04 Layer:  MANUFACTURING/PEN3*
G04 Layer:  ETCH/BOTTOM*
G04 Layer:  PIN/BOTTOM*
G04 Layer:  VIA CLASS/BOTTOM*
G04 *
G04 Offset:    (0.0 0.0)*
G04 Mirror:    No*
G04 Mode:      Positive*
G04 Rotation:  0*
G04 FullContactRelief:  No*
G04 UndefLineWidth:     5.0*
G04 ================== end FILE IDENTIFICATION RECORD ====================*
%FSLAX25Y25*MOIN*%
%IR0*IPPOS*OFA0.00000B0.00000*MIA0B0*SFA1.00000B1.00000*%
%ADD10C,.1378*%
%ADD13C,.04*%
%ADD11C,.016*%
%ADD14C,.0512*%
%ADD12C,.0984*%
%ADD15C,.01*%
%ADD16C,.02*%
%ADD17C,.005*%
%ADD18C,.1582*%
%ADD19C,.1188*%
%ADD21C,.0604*%
%ADD20C,.0716*%
G75*
%LPD*%
G75*
G36*
G01X-50590Y-71820D02*
X-44090Y-71730D01*
X-43330Y-75920D01*
X-40460Y-81180D01*
X-36520Y-84130D01*
X-32300Y-85470D01*
X-29500Y-85830D01*
X-29350Y-96930D01*
X-35560Y-96420D01*
X-42800Y-93310D01*
X-47550Y-89580D01*
X-50810Y-85120D01*
X-54190Y-78960D01*
X-55180Y-72680D01*
X-54990Y-71570D01*
X-50590Y-71820D01*
G37*
G36*
G01X-35300Y-71400D02*
X-43300Y-71200D01*
X-43700Y-71100D01*
X-41600Y-64200D01*
X-39300Y-61100D01*
X-36300Y-59000D01*
X-33100Y-57600D01*
X-29600Y-57300D01*
X-29700Y-71200D01*
X-35300Y-71400D01*
G37*
G36*
G01X-23400Y-71600D02*
X-15400Y-71800D01*
X-15000Y-71900D01*
X-17100Y-78800D01*
X-19400Y-81900D01*
X-22400Y-84000D01*
X-25600Y-85400D01*
X-29100Y-85700D01*
X-29000Y-71800D01*
X-23400Y-71600D01*
G37*
G36*
G01X-8500Y-71500D02*
X-15000D01*
X-15700Y-67300D01*
X-18500Y-62000D01*
X-22400Y-59000D01*
X-26600Y-57600D01*
X-29400Y-57200D01*
Y-46100D01*
X-23200Y-46700D01*
X-16000Y-49900D01*
X-11300Y-53700D01*
X-8100Y-58200D01*
X-4800Y-64400D01*
X-3900Y-70700D01*
X-4100Y-71800D01*
X-8500Y-71500D01*
G37*
G36*
G01X2000Y-37500D02*
X-500Y-35000D01*
Y88000D01*
X2500Y91000D01*
X151500D01*
X155000Y87500D01*
Y-37300D01*
G02X154800Y-37500I-200J0D01*
G01X2000D01*
G37*
G36*
G01X218000Y135000D02*
X211500D01*
X210800Y139200D01*
X208000Y144500D01*
X204100Y147500D01*
X199900Y148900D01*
X197100Y149300D01*
Y160400D01*
X203300Y159800D01*
X210500Y156600D01*
X215200Y152800D01*
X218400Y148300D01*
X221700Y142100D01*
X222600Y135800D01*
X222400Y134700D01*
X218000Y135000D01*
G37*
%LPC*%
G75*
G36*
G01X77660Y16490D02*
X68840D01*
G03X68700Y16430I3J-200D01*
G02Y20570I-2200J2070D01*
G03X68840Y20510I143J140D01*
G01X77660D01*
G03X77800Y20570I-3J200D01*
G02Y16430I2200J-2070D01*
G03X77660Y16490I-143J-140D01*
G37*
G36*
G01X47740Y40370D02*
X59510Y28600D01*
Y20680D01*
G02X59950Y19640I-2512J-1676D01*
G01X59960Y19590D01*
X70040Y9510D01*
X109820D01*
G02Y4490I1680J-2510D01*
G01X67960D01*
X56410Y16040D01*
X56360Y16050D01*
G02X54490Y20680I640J2951D01*
G01Y26520D01*
X44190Y36820D01*
X44140Y36830D01*
G02X47730Y40420I640J2950D01*
G01X47740Y40370D01*
G37*
G36*
G01X22630Y35260D02*
X55530Y2350D01*
X55700D01*
X57590Y460D01*
X57640Y450D01*
G02X58680Y10I-636J-2952D01*
G01X123960D01*
X127490Y3540D01*
Y25790D01*
G03X127290Y25990I-200J0D01*
G01X111320D01*
X99270Y38040D01*
X99220Y38050D01*
G02X96910Y40360I640J2950D01*
G01X96900Y40410D01*
X91990Y45320D01*
Y58820D01*
G02X97010I2510J1680D01*
G01Y47400D01*
X100450Y43960D01*
X100500Y43950D01*
G02X102810Y41640I-640J-2950D01*
G01X102820Y41590D01*
X113400Y31010D01*
X128320D01*
G02X132800Y29640I1682J-2510D01*
G03X132980Y29510I187J69D01*
G01X146820D01*
G02Y24490I1680J-2510D01*
G01X132710D01*
G03X132510Y24290I0J-200D01*
G01Y1460D01*
X126040Y-5010D01*
X58680D01*
G02X54050Y-3140I-1679J2510D01*
G01X54040Y-3090D01*
X53620Y-2670D01*
X53450D01*
X19070Y31700D01*
X18980Y31730D01*
X18910Y31710D01*
G02X22620Y35420I-1910J5620D01*
G01X22600Y35350D01*
X22630Y35260D01*
G37*
G54D18*
X8000Y-28500D03*
Y81740D03*
X145800D03*
G54D19*
X17000Y17500D03*
X35000Y-15160D03*
X66000D03*
X81500D03*
X97000D03*
X112500D03*
G54D21*
X33500Y61360D03*
G54D20*
X118500Y69500D03*
%LPD*%
G75*
G54D10*
X8000Y-28500D03*
Y81740D03*
X145800D03*
G54D11*
X3500Y-17500D03*
X19500Y-6500D03*
X6500Y4500D03*
X4500Y65000D03*
X16500Y47500D03*
X19500Y74000D03*
X19000Y89000D03*
X36000Y-24000D03*
X49500Y-7000D03*
X32220Y2500D03*
X41000Y23000D03*
X29500Y55500D03*
X45000Y49500D03*
Y56500D03*
X46500Y74500D03*
Y88500D03*
X31500Y82000D03*
X56500Y-33500D03*
X74500Y-24000D03*
X61500Y8500D03*
X66500Y-7000D03*
X77500Y500D03*
Y22500D03*
X52500Y19000D03*
X52000Y11500D03*
X65500Y23500D03*
X62000Y19000D03*
X56500Y34000D03*
X77500Y34500D03*
X77000Y54000D03*
X56000Y54500D03*
X66500Y45000D03*
X51500Y58500D03*
X78000Y65000D03*
X55500Y65500D03*
X61000Y85000D03*
X78000Y87500D03*
X73500Y77000D03*
X93500Y-34500D03*
X82500Y-7000D03*
X100000Y-8500D03*
X92500Y-6500D03*
X81000Y30000D03*
X87500D03*
X92000Y16500D03*
X87000Y23000D03*
X83500Y17000D03*
X108000Y21000D03*
X96500D03*
X105500Y30000D03*
X88000Y38500D03*
X82500Y62500D03*
X95500Y40000D03*
X83500Y59000D03*
X93000Y64500D03*
X104000Y90500D03*
X90000Y72500D03*
X110500Y-26000D03*
X109000Y-7500D03*
X134000Y-3000D03*
X124500Y3000D03*
X110000Y1500D03*
X113000Y11500D03*
X126000Y22500D03*
X117000Y24000D03*
X129150Y36440D03*
X137000Y55500D03*
X122000Y43500D03*
X112200Y53710D03*
Y47000D03*
Y60500D03*
X123500Y72500D03*
X131500Y89000D03*
X153000Y-34000D03*
X150500Y-11500D03*
X141000Y9500D03*
X148500D03*
X139000Y3500D03*
X138500Y31000D03*
X152500Y44000D03*
X153000Y67500D03*
G54D12*
X17000Y37330D03*
Y17500D03*
Y57160D03*
X35000Y-15160D03*
X50500D03*
X66000D03*
X81500D03*
X97000D03*
X112500D03*
X128000D03*
G54D13*
X44780Y39780D03*
X33500Y61360D03*
X57000Y-2500D03*
Y19000D03*
X66500Y18500D03*
X80000D03*
X99860Y41000D03*
X94500Y60500D03*
X111500Y7000D03*
X130000Y28500D03*
X148500Y27000D03*
G54D14*
X128500Y69500D03*
X118500D03*
G54D15*
G01X459800Y-187400D02*
X501000D01*
Y-317800D01*
X-148800D01*
Y-187400D01*
X463000D01*
G01X-3700Y-71700D02*
G03I-25500J0D01*
G01X-14980Y-71500D02*
G03I-14420J0D01*
G01X-59600Y-71700D02*
X700D01*
G01X-29200Y-39600D02*
Y-106200D01*
G01X5470Y-286500D02*
Y-276500D01*
G01X10030D02*
Y-286500D01*
G01Y-281500D02*
X5470D01*
G01X19200Y-286500D02*
Y-279830D01*
G01Y-281000D02*
X18770Y-280330D01*
X18120Y-280000D01*
X17360Y-279830D01*
X16600Y-280170D01*
X15950Y-280830D01*
X15520Y-281830D01*
X15300Y-283170D01*
X15520Y-284500D01*
X15950Y-285500D01*
X16600Y-286170D01*
X17360Y-286500D01*
X18120Y-286330D01*
X18770Y-285830D01*
X19200Y-285170D01*
G01X24910Y-286500D02*
Y-279830D01*
G01Y-281500D02*
X25340Y-280670D01*
X25990Y-280000D01*
X26860Y-279830D01*
X27620Y-280000D01*
X28270Y-280670D01*
X28590Y-281830D01*
Y-286500D01*
G01X38200Y-276500D02*
Y-286500D01*
G01Y-285000D02*
X37770Y-285830D01*
X37120Y-286330D01*
X36360Y-286500D01*
X35490Y-286170D01*
X34840Y-285330D01*
X34410Y-284330D01*
X34300Y-283170D01*
X34410Y-282000D01*
X34840Y-281000D01*
X35490Y-280170D01*
X36360Y-279830D01*
X37120Y-280000D01*
X37660Y-280330D01*
X38200Y-281000D01*
G01X52970Y-285170D02*
X53840Y-286000D01*
X54820Y-286500D01*
X55680D01*
X56550Y-286000D01*
X57200Y-285170D01*
X57530Y-284000D01*
X57310Y-282830D01*
X56770Y-281830D01*
X55790Y-281170D01*
X54490Y-280830D01*
X53730Y-280170D01*
X53410Y-279000D01*
X53630Y-277830D01*
X54170Y-277000D01*
X54920Y-276500D01*
X55680D01*
X56440Y-276830D01*
X57090Y-277670D01*
G01X62040Y-286500D02*
X64750Y-276500D01*
X67460Y-286500D01*
G01X66480Y-283000D02*
X63020D01*
G01X71760Y-286500D02*
Y-276500D01*
X76740Y-286500D01*
Y-276500D01*
G01X82450D02*
X85050D01*
G01X83750D02*
Y-286500D01*
G01X82450D02*
X85050D01*
G01X93250Y-276500D02*
Y-286500D01*
G01X90760Y-276500D02*
X95740D01*
G01X101450D02*
X104050D01*
G01X102750D02*
Y-286500D01*
G01X101450D02*
X104050D01*
G01X109970Y-285170D02*
X110840Y-286000D01*
X111820Y-286500D01*
X112680D01*
X113550Y-286000D01*
X114200Y-285170D01*
X114530Y-284000D01*
X114310Y-282830D01*
X113770Y-281830D01*
X112790Y-281170D01*
X111490Y-280830D01*
X110730Y-280170D01*
X110410Y-279000D01*
X110630Y-277830D01*
X111170Y-277000D01*
X111920Y-276500D01*
X112680D01*
X113440Y-276830D01*
X114090Y-277670D01*
G01X123920Y-286500D02*
X119580D01*
Y-276500D01*
X123920D01*
G01X122180Y-281330D02*
X119580D01*
G01X129080Y-286500D02*
Y-276500D01*
X131790D01*
X132660Y-277000D01*
X133200Y-277670D01*
X133420Y-279000D01*
X133200Y-280330D01*
X132550Y-281170D01*
X131790Y-281670D01*
X129080D01*
G01X131790D02*
X133420Y-286500D01*
G01X40070Y-229900D02*
Y-219900D01*
X42230D01*
X43100Y-220400D01*
X43750Y-221070D01*
X44290Y-222070D01*
X44730Y-223230D01*
X44830Y-224900D01*
X44730Y-226570D01*
X44290Y-227730D01*
X43750Y-228730D01*
X43100Y-229400D01*
X42230Y-229900D01*
X40070D01*
G01X49780D02*
Y-219900D01*
X52490D01*
X53360Y-220400D01*
X53900Y-221070D01*
X54120Y-222400D01*
X53900Y-223730D01*
X53250Y-224570D01*
X52490Y-225070D01*
X49780D01*
G01X52490D02*
X54120Y-229900D01*
G01X58740D02*
X61450Y-219900D01*
X64160Y-229900D01*
G01X63180Y-226400D02*
X59720D01*
G01X67700Y-219900D02*
X69220Y-229900D01*
X70950Y-219900D01*
X72680Y-229900D01*
X74200Y-219900D01*
G01X79150D02*
X81750D01*
G01X80450D02*
Y-229900D01*
G01X79150D02*
X81750D01*
G01X87460D02*
Y-219900D01*
X92440Y-229900D01*
Y-219900D01*
G01X100100Y-224900D02*
X102270D01*
Y-227900D01*
X101620Y-228900D01*
X100860Y-229570D01*
X99780Y-229900D01*
X98690Y-229570D01*
X97930Y-228900D01*
X97280Y-227900D01*
X96850Y-226730D01*
X96630Y-225400D01*
Y-224230D01*
X96850Y-223230D01*
X97280Y-222070D01*
X97930Y-221070D01*
X98580Y-220400D01*
X99450Y-219900D01*
X100210D01*
X101070Y-220230D01*
X101730Y-220900D01*
G01X80000Y18500D02*
X66500D01*
G01X168090Y-278070D02*
X168740Y-277070D01*
X169500Y-276570D01*
X170370Y-276400D01*
X171450Y-276730D01*
X172210Y-277570D01*
X172430Y-278570D01*
X172320Y-279570D01*
X171880Y-280400D01*
X169720Y-282070D01*
X168740Y-283230D01*
X168090Y-284900D01*
X167870Y-286400D01*
X172430D01*
G01X179650Y-276400D02*
X178780Y-276730D01*
X178130Y-277570D01*
X177700Y-278570D01*
X177370Y-279900D01*
X177270Y-281400D01*
X177370Y-282900D01*
X177700Y-284230D01*
X178130Y-285230D01*
X178780Y-286070D01*
X179650Y-286400D01*
X180520Y-286070D01*
X181170Y-285230D01*
X181600Y-284230D01*
X181930Y-282900D01*
X182030Y-281400D01*
X181930Y-279900D01*
X181600Y-278570D01*
X181170Y-277570D01*
X180520Y-276730D01*
X179650Y-276400D01*
G01X187090Y-278070D02*
X187740Y-277070D01*
X188500Y-276570D01*
X189370Y-276400D01*
X190450Y-276730D01*
X191210Y-277570D01*
X191430Y-278570D01*
X191320Y-279570D01*
X190880Y-280400D01*
X188720Y-282070D01*
X187740Y-283230D01*
X187090Y-284900D01*
X186870Y-286400D01*
X191430D01*
G01X198650D02*
Y-276400D01*
X197350Y-278400D01*
G01Y-286400D02*
X199950D01*
G01X208150Y-276400D02*
X207280Y-276730D01*
X206630Y-277570D01*
X206200Y-278570D01*
X205870Y-279900D01*
X205770Y-281400D01*
X205870Y-282900D01*
X206200Y-284230D01*
X206630Y-285230D01*
X207280Y-286070D01*
X208150Y-286400D01*
X209020Y-286070D01*
X209670Y-285230D01*
X210100Y-284230D01*
X210430Y-282900D01*
X210530Y-281400D01*
X210430Y-279900D01*
X210100Y-278570D01*
X209670Y-277570D01*
X209020Y-276730D01*
X208150Y-276400D01*
G01X215270Y-284900D02*
X215920Y-285730D01*
X216670Y-286230D01*
X217650Y-286400D01*
X218630Y-286070D01*
X219380Y-285400D01*
X219930Y-284230D01*
X220030Y-282900D01*
X219820Y-281570D01*
X219270Y-280730D01*
X218520Y-280070D01*
X217760Y-279900D01*
X217000Y-280070D01*
X216030Y-280730D01*
X216350Y-276400D01*
X219270D01*
G01X227150Y-286400D02*
Y-276400D01*
X225850Y-278400D01*
G01Y-286400D02*
X228450D01*
G01X237950D02*
Y-276400D01*
X233940Y-283570D01*
X239360D01*
G01X185870Y-228900D02*
Y-218900D01*
X188030D01*
X188900Y-219400D01*
X189550Y-220070D01*
X190090Y-221070D01*
X190530Y-222230D01*
X190630Y-223900D01*
X190530Y-225570D01*
X190090Y-226730D01*
X189550Y-227730D01*
X188900Y-228400D01*
X188030Y-228900D01*
X185870D01*
G01X195040D02*
X197750Y-218900D01*
X200460Y-228900D01*
G01X199480Y-225400D02*
X196020D01*
G01X207250Y-218900D02*
Y-228900D01*
G01X204760Y-218900D02*
X209740D01*
G01X218920Y-228900D02*
X214580D01*
Y-218900D01*
X218920D01*
G01X217180Y-223730D02*
X214580D01*
G01X222800Y134800D02*
G03I-25500J0D01*
G01X211520Y135000D02*
G03I-14420J0D01*
G01X166900Y134800D02*
X227200D01*
G01X197300Y166900D02*
Y100300D01*
G01X256750Y-152500D02*
Y-142500D01*
X255450Y-144500D01*
G01Y-152500D02*
X258050D01*
G01X266250Y-152830D02*
X266030Y-152670D01*
Y-152330D01*
X266250Y-152170D01*
X266470Y-152330D01*
Y-152670D01*
X266250Y-152830D01*
G01X273690Y-148330D02*
X274450Y-147170D01*
X275100Y-146500D01*
X275970Y-146170D01*
X276730Y-146500D01*
X277270Y-147170D01*
X277700Y-148170D01*
X277810Y-149330D01*
X277700Y-150330D01*
X277270Y-151330D01*
X276620Y-152170D01*
X275860Y-152500D01*
X274990Y-152170D01*
X274230Y-151170D01*
X273800Y-149670D01*
X273690Y-148000D01*
X273910Y-145830D01*
X274230Y-144670D01*
X274770Y-143500D01*
X275530Y-142670D01*
X276290Y-142500D01*
X277050Y-142830D01*
X277590Y-143670D01*
G01X282000Y-152500D02*
Y-145830D01*
G01Y-147670D02*
X282320Y-146830D01*
X282870Y-146170D01*
X283630Y-145830D01*
X284380Y-146170D01*
X284920Y-146830D01*
X285250Y-147670D01*
Y-152500D01*
G01Y-147670D02*
X285580Y-146830D01*
X286120Y-146170D01*
X286870Y-145830D01*
X287630Y-146170D01*
X288180Y-146830D01*
X288500Y-147830D01*
Y-152500D01*
G01X291500D02*
Y-145830D01*
G01Y-147670D02*
X291820Y-146830D01*
X292370Y-146170D01*
X293130Y-145830D01*
X293880Y-146170D01*
X294420Y-146830D01*
X294750Y-147670D01*
Y-152500D01*
G01Y-147670D02*
X295080Y-146830D01*
X295620Y-146170D01*
X296370Y-145830D01*
X297130Y-146170D01*
X297680Y-146830D01*
X298000Y-147830D01*
Y-152500D01*
G01X281650Y-285400D02*
Y-275400D01*
X280350Y-277400D01*
G01Y-285400D02*
X282950D01*
G01X291150Y-285730D02*
X290930Y-285570D01*
Y-285230D01*
X291150Y-285070D01*
X291370Y-285230D01*
Y-285570D01*
X291150Y-285730D01*
G01Y-281230D02*
X290930Y-281070D01*
Y-280730D01*
X291150Y-280570D01*
X291370Y-280730D01*
Y-281070D01*
X291150Y-281230D01*
G01X300650Y-285400D02*
Y-275400D01*
X299350Y-277400D01*
G01Y-285400D02*
X301950D01*
G01X269270Y-227070D02*
X270140Y-227900D01*
X271120Y-228400D01*
X271980D01*
X272850Y-227900D01*
X273500Y-227070D01*
X273830Y-225900D01*
X273610Y-224730D01*
X273070Y-223730D01*
X272090Y-223070D01*
X270790Y-222730D01*
X270030Y-222070D01*
X269710Y-220900D01*
X269930Y-219730D01*
X270470Y-218900D01*
X271220Y-218400D01*
X271980D01*
X272740Y-218730D01*
X273390Y-219570D01*
G01X283430Y-219230D02*
X282780Y-218730D01*
X282030Y-218400D01*
X281160D01*
X280180Y-218900D01*
X279430Y-219730D01*
X278880Y-220730D01*
X278450Y-222400D01*
X278340Y-223900D01*
X278560Y-225400D01*
X278880Y-226400D01*
X279530Y-227400D01*
X280290Y-228070D01*
X281050Y-228400D01*
X281810D01*
X282570Y-228070D01*
X283220Y-227570D01*
X283760Y-226900D01*
G01X287840Y-228400D02*
X290550Y-218400D01*
X293260Y-228400D01*
G01X292280Y-224900D02*
X288820D01*
G01X297880Y-218400D02*
Y-228400D01*
X302220D01*
G01X311720D02*
X307380D01*
Y-218400D01*
X311720D01*
G01X309980Y-223230D02*
X307380D01*
G01X445700Y-142500D02*
X310500D01*
G01Y-155500D02*
X445700D01*
G01X300000Y-142000D02*
X307500D01*
Y-155500D01*
X300500D01*
G01X390120Y-282170D02*
X390550Y-281670D01*
X390870Y-280830D01*
X391090Y-279670D01*
X390870Y-278670D01*
X390440Y-278000D01*
X389680Y-277500D01*
X386760D01*
Y-287500D01*
X390330D01*
X391090Y-286830D01*
X391530Y-285830D01*
X391740Y-284670D01*
X391530Y-283500D01*
X390870Y-282500D01*
X390120Y-282170D01*
X386760D01*
G01X398750Y-287500D02*
X398100Y-287330D01*
X397450Y-286670D01*
X397020Y-285500D01*
X396800Y-284170D01*
X397020Y-282830D01*
X397450Y-281670D01*
X398100Y-281000D01*
X398750Y-280830D01*
X399400Y-281000D01*
X400050Y-281670D01*
X400480Y-282830D01*
X400590Y-284170D01*
X400480Y-285500D01*
X400050Y-286670D01*
X399400Y-287330D01*
X398750Y-287500D01*
G01X408250Y-277500D02*
Y-287500D01*
G01X406730Y-280830D02*
X409770D01*
G01X417750Y-277500D02*
Y-287500D01*
G01X416230Y-280830D02*
X419270D01*
G01X427250Y-287500D02*
X426600Y-287330D01*
X425950Y-286670D01*
X425520Y-285500D01*
X425300Y-284170D01*
X425520Y-282830D01*
X425950Y-281670D01*
X426600Y-281000D01*
X427250Y-280830D01*
X427900Y-281000D01*
X428550Y-281670D01*
X428980Y-282830D01*
X429090Y-284170D01*
X428980Y-285500D01*
X428550Y-286670D01*
X427900Y-287330D01*
X427250Y-287500D01*
G01X433500D02*
Y-280830D01*
G01Y-282670D02*
X433820Y-281830D01*
X434370Y-281170D01*
X435130Y-280830D01*
X435880Y-281170D01*
X436420Y-281830D01*
X436750Y-282670D01*
Y-287500D01*
G01Y-282670D02*
X437080Y-281830D01*
X437620Y-281170D01*
X438370Y-280830D01*
X439130Y-281170D01*
X439680Y-281830D01*
X440000Y-282830D01*
Y-287500D01*
G01X399670Y-227270D02*
X400540Y-228100D01*
X401520Y-228600D01*
X402380D01*
X403250Y-228100D01*
X403900Y-227270D01*
X404230Y-226100D01*
X404010Y-224930D01*
X403470Y-223930D01*
X402490Y-223270D01*
X401190Y-222930D01*
X400430Y-222270D01*
X400110Y-221100D01*
X400330Y-219930D01*
X400870Y-219100D01*
X401620Y-218600D01*
X402380D01*
X403140Y-218930D01*
X403790Y-219770D01*
G01X410150Y-218600D02*
X412750D01*
G01X411450D02*
Y-228600D01*
G01X410150D02*
X412750D01*
G01X418570D02*
Y-218600D01*
X420730D01*
X421600Y-219100D01*
X422250Y-219770D01*
X422790Y-220770D01*
X423230Y-221930D01*
X423330Y-223600D01*
X423230Y-225270D01*
X422790Y-226430D01*
X422250Y-227430D01*
X421600Y-228100D01*
X420730Y-228600D01*
X418570D01*
G01X432620D02*
X428280D01*
Y-218600D01*
X432620D01*
G01X430880Y-223430D02*
X428280D01*
G01X454850Y-136400D02*
Y-144400D01*
G01X452740Y-136400D02*
X456960D01*
G01X461850Y-144400D02*
X461120Y-144270D01*
X460480Y-143730D01*
X459920Y-142930D01*
X459560Y-142000D01*
X459370Y-140930D01*
Y-139870D01*
X459560Y-138800D01*
X459920Y-137870D01*
X460480Y-137070D01*
X461120Y-136530D01*
X461850Y-136400D01*
X462580Y-136530D01*
X463220Y-137070D01*
X463780Y-137870D01*
X464140Y-138800D01*
X464330Y-139870D01*
Y-140930D01*
X464140Y-142000D01*
X463780Y-142930D01*
X463220Y-143730D01*
X462580Y-144270D01*
X461850Y-144400D01*
G01X467020D02*
Y-136400D01*
X469220D01*
X469950Y-136800D01*
X470500Y-137730D01*
X470680Y-138800D01*
X470500Y-139870D01*
X470040Y-140670D01*
X469220Y-141070D01*
X467020D01*
G01X456980Y-153230D02*
X457350Y-152830D01*
X457620Y-152170D01*
X457810Y-151230D01*
X457620Y-150430D01*
X457260Y-149900D01*
X456620Y-149500D01*
X454140D01*
Y-157500D01*
X457170D01*
X457810Y-156970D01*
X458180Y-156170D01*
X458360Y-155230D01*
X458180Y-154300D01*
X457620Y-153500D01*
X456980Y-153230D01*
X454140D01*
G01X463250Y-157500D02*
X462520Y-157370D01*
X461880Y-156830D01*
X461320Y-156030D01*
X460960Y-155100D01*
X460770Y-154030D01*
Y-152970D01*
X460960Y-151900D01*
X461320Y-150970D01*
X461880Y-150170D01*
X462520Y-149630D01*
X463250Y-149500D01*
X463980Y-149630D01*
X464620Y-150170D01*
X465180Y-150970D01*
X465540Y-151900D01*
X465730Y-152970D01*
Y-154030D01*
X465540Y-155100D01*
X465180Y-156030D01*
X464620Y-156830D01*
X463980Y-157370D01*
X463250Y-157500D01*
G01X470250Y-149500D02*
Y-157500D01*
G01X468140Y-149500D02*
X472360D01*
G01X477250D02*
Y-157500D01*
G01X475140Y-149500D02*
X479360D01*
G01X484250Y-157500D02*
X483520Y-157370D01*
X482880Y-156830D01*
X482320Y-156030D01*
X481960Y-155100D01*
X481770Y-154030D01*
Y-152970D01*
X481960Y-151900D01*
X482320Y-150970D01*
X482880Y-150170D01*
X483520Y-149630D01*
X484250Y-149500D01*
X484980Y-149630D01*
X485620Y-150170D01*
X486180Y-150970D01*
X486540Y-151900D01*
X486730Y-152970D01*
Y-154030D01*
X486540Y-155100D01*
X486180Y-156030D01*
X485620Y-156830D01*
X484980Y-157370D01*
X484250Y-157500D01*
G01X488870D02*
Y-149500D01*
X491250Y-156170D01*
X493630Y-149500D01*
Y-157500D01*
G54D16*
G01X206200Y-191100D02*
X497100D01*
Y-313200D01*
X-145400D01*
Y-191100D01*
X242000D01*
G01X495900Y-252500D02*
X-16500D01*
Y-313200D01*
G01Y-252500D02*
Y-191100D01*
G01X57000Y-2500D02*
X54660Y-160D01*
X54490D01*
X17000Y37330D01*
G01X57000Y19000D02*
Y27560D01*
X44780Y39780D01*
G01X130000Y28500D02*
Y2500D01*
X125000Y-2500D01*
X57000D01*
G01X111500Y7000D02*
X69000D01*
X57000Y19000D01*
G01X130000Y28500D02*
X112360D01*
X99860Y41000D01*
G01X94500Y60500D02*
Y46360D01*
X99860Y41000D01*
G01X148500Y27000D02*
X131500D01*
X130000Y28500D01*
G01X155600Y-192000D02*
Y-313000D01*
G01X250400Y-191900D02*
Y-312900D01*
G01X310500Y-142500D02*
Y-155500D01*
G01X331800Y-192500D02*
Y-313500D01*
G54D17*
G01X-181000Y-360000D02*
X658000D01*
Y226000D01*
X-181000D01*
Y-360000D01*
G01D02*
X658000D01*
Y226000D01*
X-181000D01*
Y-360000D01*
M02*
