G04 ================== begin FILE IDENTIFICATION RECORD ==================*
G04 Layout Name:  C:/Users/53466/Desktop/RAY/Hand-0518-a.brd*
G04 Film Name:    DRILL*
G04 File Format:  Gerber RS274X*
G04 File Origin:  Cadence Allegro 16.6-2015-S088*
G04 Origin Date:  Tue May 18 18:12:47 2021*
G04 *
G04 Layer:  MANUFACTURING/NCLEGEND-1-2*
G04 Layer:  BOARD GEOMETRY/OUTLINE*
G04 Layer:  BOARD GEOMETRY/DIMENSION*
G04 Layer:  MANUFACTURING/PHOTOPLOT_OUTLINE*
G04 Layer:  MANUFACTURING/PEN3-DRILL*
G04 Layer:  MANUFACTURING/PEN3*
G04 *
G04 Offset:    (0.0 0.0)*
G04 Mirror:    No*
G04 Mode:      Positive*
G04 Rotation:  0*
G04 FullContactRelief:  No*
G04 UndefLineWidth:     5.0*
G04 ================== end FILE IDENTIFICATION RECORD ====================*
%FSLAX25Y25*MOIN*%
%IR0*IPPOS*OFA0.00000B0.00000*MIA0B0*SFA1.00000B1.00000*%
%AMMACRO10*
1,1,.005,.005,0.0*
20,1,.005,.005,0.0,-.005,0.0,0.0*
1,1,.005,-.005,0.0*
1,1,.005,0.0,.005*
20,1,.005,0.0,.005,0.0,-.005,0.0*
1,1,.005,0.0,-.005*
%
%ADD10MACRO10*%
%AMMACRO12*
1,1,.005,.01,.01*
20,1,.005,.01,.01,.01,-.01,0.0*
1,1,.005,.01,-.01*
20,1,.005,.01,-.01,-.01,-.01,0.0*
1,1,.005,-.01,-.01*
20,1,.005,-.01,-.01,-.01,.01,0.0*
1,1,.005,-.01,.01*
20,1,.005,-.01,.01,.01,.01,0.0*
1,1,.005,.01,.01*
%
%ADD12MACRO12*%
%AMMACRO13*
1,1,.005,.0138,0.0*
20,1,.005,.0138,0.0,.0069,.011951,0.0*
1,1,.005,.0069,.011951*
20,1,.005,.0069,.011951,-.0069,.011951,0.0*
1,1,.005,-.0069,.011951*
20,1,.005,-.0069,.011951,-.0138,0.0,0.0*
1,1,.005,-.0138,0.0*
20,1,.005,-.0138,0.0,-.0069,-.011951,0.0*
1,1,.005,-.0069,-.011951*
20,1,.005,-.0069,-.011951,.0069,-.011951,0.0*
1,1,.005,.0069,-.011951*
20,1,.005,.0069,-.011951,.0138,0.0,0.0*
1,1,.005,.0138,0.0*
%
%ADD13MACRO13*%
%AMMACRO11*
1,1,.005,0.0,.02955*
20,1,.005,0.0,.02955,-.025591,.014775,0.0*
1,1,.005,-.025591,.014775*
20,1,.005,-.025591,.014775,-.025591,-.014775,0.0*
1,1,.005,-.025591,-.014775*
20,1,.005,-.025591,-.014775,0.0,-.02955,0.0*
1,1,.005,0.0,-.02955*
20,1,.005,0.0,-.02955,.025591,-.014775,0.0*
1,1,.005,.025591,-.014775*
20,1,.005,.025591,-.014775,.025591,.014775,0.0*
1,1,.005,.025591,.014775*
20,1,.005,.025591,.014775,0.0,.02955,0.0*
1,1,.005,0.0,.02955*
%
%ADD11MACRO11*%
%ADD14C,.005*%
%ADD15C,.01*%
%ADD16C,.02*%
G75*
%LPD*%
G75*
G36*
G01X-50590Y-71820D02*
X-44090Y-71730D01*
X-43330Y-75920D01*
X-40460Y-81180D01*
X-36520Y-84130D01*
X-32300Y-85470D01*
X-29500Y-85830D01*
X-29350Y-96930D01*
X-35560Y-96420D01*
X-42800Y-93310D01*
X-47550Y-89580D01*
X-50810Y-85120D01*
X-54190Y-78960D01*
X-55180Y-72680D01*
X-54990Y-71570D01*
X-50590Y-71820D01*
G37*
G36*
G01X-35300Y-71400D02*
X-43300Y-71200D01*
X-43700Y-71100D01*
X-41600Y-64200D01*
X-39300Y-61100D01*
X-36300Y-59000D01*
X-33100Y-57600D01*
X-29600Y-57300D01*
X-29700Y-71200D01*
X-35300Y-71400D01*
G37*
G36*
G01X-23400Y-71600D02*
X-15400Y-71800D01*
X-15000Y-71900D01*
X-17100Y-78800D01*
X-19400Y-81900D01*
X-22400Y-84000D01*
X-25600Y-85400D01*
X-29100Y-85700D01*
X-29000Y-71800D01*
X-23400Y-71600D01*
G37*
G36*
G01X-8500Y-71500D02*
X-15000D01*
X-15700Y-67300D01*
X-18500Y-62000D01*
X-22400Y-59000D01*
X-26600Y-57600D01*
X-29400Y-57200D01*
Y-46100D01*
X-23200Y-46700D01*
X-16000Y-49900D01*
X-11300Y-53700D01*
X-8100Y-58200D01*
X-4800Y-64400D01*
X-3900Y-70700D01*
X-4100Y-71800D01*
X-8500Y-71500D01*
G37*
G36*
G01X218000Y135000D02*
X211500D01*
X210800Y139200D01*
X208000Y144500D01*
X204100Y147500D01*
X199900Y148900D01*
X197100Y149300D01*
Y160400D01*
X203300Y159800D01*
X210500Y156600D01*
X215200Y152800D01*
X218400Y148300D01*
X221700Y142100D01*
X222600Y135800D01*
X222400Y134700D01*
X218000Y135000D01*
G37*
G54D10*
X3500Y-17500D03*
X19500Y-6500D03*
X6500Y4500D03*
X4500Y65000D03*
X16500Y47500D03*
X19500Y74000D03*
X19000Y89000D03*
X36000Y-24000D03*
X49500Y-7000D03*
X32220Y2500D03*
X41000Y23000D03*
X29500Y55500D03*
X45000Y49500D03*
Y56500D03*
X46500Y74500D03*
Y88500D03*
X31500Y82000D03*
X56500Y-33500D03*
X74500Y-24000D03*
X61500Y8500D03*
X66500Y-7000D03*
X77500Y500D03*
Y22500D03*
X52500Y19000D03*
X52000Y11500D03*
X65500Y23500D03*
X62000Y19000D03*
X56500Y34000D03*
X77500Y34500D03*
X77000Y54000D03*
X56000Y54500D03*
X66500Y45000D03*
X51500Y58500D03*
X78000Y65000D03*
X55500Y65500D03*
X61000Y85000D03*
X78000Y87500D03*
X73500Y77000D03*
X93500Y-34500D03*
X82500Y-7000D03*
X100000Y-8500D03*
X92500Y-6500D03*
X81000Y30000D03*
X87500D03*
X92000Y16500D03*
X87000Y23000D03*
X83500Y17000D03*
X108000Y21000D03*
X96500D03*
X105500Y30000D03*
X88000Y38500D03*
X82500Y62500D03*
X95500Y40000D03*
X83500Y59000D03*
X93000Y64500D03*
X104000Y90500D03*
X90000Y72500D03*
X110500Y-26000D03*
X109000Y-7500D03*
X134000Y-3000D03*
X124500Y3000D03*
X110000Y1500D03*
X113000Y11500D03*
X126000Y22500D03*
X117000Y24000D03*
X129150Y36440D03*
X137000Y55500D03*
X122000Y43500D03*
X112200Y53710D03*
Y47000D03*
Y60500D03*
X123500Y72500D03*
X131500Y89000D03*
X153000Y-34000D03*
X150500Y-11500D03*
X141000Y9500D03*
X148500D03*
X139000Y3500D03*
X138500Y31000D03*
X152500Y44000D03*
X153000Y67500D03*
X291250Y44500D03*
G54D11*
X17000Y37330D03*
Y17500D03*
Y57160D03*
X35000Y-15160D03*
X50500D03*
X66000D03*
X81500D03*
X97000D03*
X112500D03*
X128000D03*
X291250Y-15500D03*
G54D12*
X44780Y39780D03*
X33500Y61360D03*
X57000Y-2500D03*
Y19000D03*
X66500Y18500D03*
X80000D03*
X99860Y41000D03*
X94500Y60500D03*
X111500Y7000D03*
X130000Y28500D03*
X148500Y27000D03*
X291250Y24500D03*
G54D13*
X128500Y69500D03*
X118500D03*
X291250Y4500D03*
G54D14*
G01X-1840Y85680D02*
Y-32430D01*
G01D02*
G03X4070Y-38340I5905J-5D01*
G01D02*
X155640D01*
G01X12330Y-28500D02*
G03I-4328J3D01*
G01X149730Y91580D02*
X4070D01*
G01D02*
G03X-1840Y85680I-5J-5905D01*
G01X155640Y-38340D02*
Y85680D01*
G01D02*
G03X149730Y91580I-5905J-5D01*
G01X150130Y81740D02*
G03I-4333J-1D01*
G01X-181000Y-360000D02*
X658000D01*
Y226000D01*
X-181000D01*
Y-360000D01*
G01X256500Y-45500D02*
Y119500D01*
X629500D01*
Y-45500D01*
X256500D01*
G01Y-25500D02*
X629500D01*
G01X256500Y-5500D02*
X629500D01*
G01X256500Y34500D02*
X629500D01*
G01X256500Y14500D02*
X629500D01*
G01X256500Y54500D02*
X629500D01*
G01X256500Y94500D02*
X629500D01*
G01X256500Y74500D02*
X629500D01*
G01X326000D02*
Y-45500D01*
G01X471500Y74500D02*
Y-45500D01*
G01X569500Y74500D02*
Y-45500D01*
G01X-181000Y-360000D02*
X658000D01*
Y226000D01*
X-181000D01*
Y-360000D01*
G54D15*
G01X459800Y-187400D02*
X501000D01*
Y-317800D01*
X-148800D01*
Y-187400D01*
X463000D01*
G01X-3700Y-71700D02*
G03I-25500J0D01*
G01X-14980Y-71500D02*
G03I-14420J0D01*
G01X-59600Y-71700D02*
X700D01*
G01X-29200Y-39600D02*
Y-106200D01*
G01X5470Y-286500D02*
Y-276500D01*
G01X10030D02*
Y-286500D01*
G01Y-281500D02*
X5470D01*
G01X19200Y-286500D02*
Y-279830D01*
G01Y-281000D02*
X18770Y-280330D01*
X18120Y-280000D01*
X17360Y-279830D01*
X16600Y-280170D01*
X15950Y-280830D01*
X15520Y-281830D01*
X15300Y-283170D01*
X15520Y-284500D01*
X15950Y-285500D01*
X16600Y-286170D01*
X17360Y-286500D01*
X18120Y-286330D01*
X18770Y-285830D01*
X19200Y-285170D01*
G01X24910Y-286500D02*
Y-279830D01*
G01Y-281500D02*
X25340Y-280670D01*
X25990Y-280000D01*
X26860Y-279830D01*
X27620Y-280000D01*
X28270Y-280670D01*
X28590Y-281830D01*
Y-286500D01*
G01X38200Y-276500D02*
Y-286500D01*
G01Y-285000D02*
X37770Y-285830D01*
X37120Y-286330D01*
X36360Y-286500D01*
X35490Y-286170D01*
X34840Y-285330D01*
X34410Y-284330D01*
X34300Y-283170D01*
X34410Y-282000D01*
X34840Y-281000D01*
X35490Y-280170D01*
X36360Y-279830D01*
X37120Y-280000D01*
X37660Y-280330D01*
X38200Y-281000D01*
G01X52970Y-285170D02*
X53840Y-286000D01*
X54820Y-286500D01*
X55680D01*
X56550Y-286000D01*
X57200Y-285170D01*
X57530Y-284000D01*
X57310Y-282830D01*
X56770Y-281830D01*
X55790Y-281170D01*
X54490Y-280830D01*
X53730Y-280170D01*
X53410Y-279000D01*
X53630Y-277830D01*
X54170Y-277000D01*
X54920Y-276500D01*
X55680D01*
X56440Y-276830D01*
X57090Y-277670D01*
G01X62040Y-286500D02*
X64750Y-276500D01*
X67460Y-286500D01*
G01X66480Y-283000D02*
X63020D01*
G01X71760Y-286500D02*
Y-276500D01*
X76740Y-286500D01*
Y-276500D01*
G01X82450D02*
X85050D01*
G01X83750D02*
Y-286500D01*
G01X82450D02*
X85050D01*
G01X93250Y-276500D02*
Y-286500D01*
G01X90760Y-276500D02*
X95740D01*
G01X101450D02*
X104050D01*
G01X102750D02*
Y-286500D01*
G01X101450D02*
X104050D01*
G01X109970Y-285170D02*
X110840Y-286000D01*
X111820Y-286500D01*
X112680D01*
X113550Y-286000D01*
X114200Y-285170D01*
X114530Y-284000D01*
X114310Y-282830D01*
X113770Y-281830D01*
X112790Y-281170D01*
X111490Y-280830D01*
X110730Y-280170D01*
X110410Y-279000D01*
X110630Y-277830D01*
X111170Y-277000D01*
X111920Y-276500D01*
X112680D01*
X113440Y-276830D01*
X114090Y-277670D01*
G01X123920Y-286500D02*
X119580D01*
Y-276500D01*
X123920D01*
G01X122180Y-281330D02*
X119580D01*
G01X129080Y-286500D02*
Y-276500D01*
X131790D01*
X132660Y-277000D01*
X133200Y-277670D01*
X133420Y-279000D01*
X133200Y-280330D01*
X132550Y-281170D01*
X131790Y-281670D01*
X129080D01*
G01X131790D02*
X133420Y-286500D01*
G01X40070Y-229900D02*
Y-219900D01*
X42230D01*
X43100Y-220400D01*
X43750Y-221070D01*
X44290Y-222070D01*
X44730Y-223230D01*
X44830Y-224900D01*
X44730Y-226570D01*
X44290Y-227730D01*
X43750Y-228730D01*
X43100Y-229400D01*
X42230Y-229900D01*
X40070D01*
G01X49780D02*
Y-219900D01*
X52490D01*
X53360Y-220400D01*
X53900Y-221070D01*
X54120Y-222400D01*
X53900Y-223730D01*
X53250Y-224570D01*
X52490Y-225070D01*
X49780D01*
G01X52490D02*
X54120Y-229900D01*
G01X58740D02*
X61450Y-219900D01*
X64160Y-229900D01*
G01X63180Y-226400D02*
X59720D01*
G01X67700Y-219900D02*
X69220Y-229900D01*
X70950Y-219900D01*
X72680Y-229900D01*
X74200Y-219900D01*
G01X79150D02*
X81750D01*
G01X80450D02*
Y-229900D01*
G01X79150D02*
X81750D01*
G01X87460D02*
Y-219900D01*
X92440Y-229900D01*
Y-219900D01*
G01X100100Y-224900D02*
X102270D01*
Y-227900D01*
X101620Y-228900D01*
X100860Y-229570D01*
X99780Y-229900D01*
X98690Y-229570D01*
X97930Y-228900D01*
X97280Y-227900D01*
X96850Y-226730D01*
X96630Y-225400D01*
Y-224230D01*
X96850Y-223230D01*
X97280Y-222070D01*
X97930Y-221070D01*
X98580Y-220400D01*
X99450Y-219900D01*
X100210D01*
X101070Y-220230D01*
X101730Y-220900D01*
G01X168090Y-278070D02*
X168740Y-277070D01*
X169500Y-276570D01*
X170370Y-276400D01*
X171450Y-276730D01*
X172210Y-277570D01*
X172430Y-278570D01*
X172320Y-279570D01*
X171880Y-280400D01*
X169720Y-282070D01*
X168740Y-283230D01*
X168090Y-284900D01*
X167870Y-286400D01*
X172430D01*
G01X179650Y-276400D02*
X178780Y-276730D01*
X178130Y-277570D01*
X177700Y-278570D01*
X177370Y-279900D01*
X177270Y-281400D01*
X177370Y-282900D01*
X177700Y-284230D01*
X178130Y-285230D01*
X178780Y-286070D01*
X179650Y-286400D01*
X180520Y-286070D01*
X181170Y-285230D01*
X181600Y-284230D01*
X181930Y-282900D01*
X182030Y-281400D01*
X181930Y-279900D01*
X181600Y-278570D01*
X181170Y-277570D01*
X180520Y-276730D01*
X179650Y-276400D01*
G01X187090Y-278070D02*
X187740Y-277070D01*
X188500Y-276570D01*
X189370Y-276400D01*
X190450Y-276730D01*
X191210Y-277570D01*
X191430Y-278570D01*
X191320Y-279570D01*
X190880Y-280400D01*
X188720Y-282070D01*
X187740Y-283230D01*
X187090Y-284900D01*
X186870Y-286400D01*
X191430D01*
G01X198650D02*
Y-276400D01*
X197350Y-278400D01*
G01Y-286400D02*
X199950D01*
G01X208150Y-276400D02*
X207280Y-276730D01*
X206630Y-277570D01*
X206200Y-278570D01*
X205870Y-279900D01*
X205770Y-281400D01*
X205870Y-282900D01*
X206200Y-284230D01*
X206630Y-285230D01*
X207280Y-286070D01*
X208150Y-286400D01*
X209020Y-286070D01*
X209670Y-285230D01*
X210100Y-284230D01*
X210430Y-282900D01*
X210530Y-281400D01*
X210430Y-279900D01*
X210100Y-278570D01*
X209670Y-277570D01*
X209020Y-276730D01*
X208150Y-276400D01*
G01X215270Y-284900D02*
X215920Y-285730D01*
X216670Y-286230D01*
X217650Y-286400D01*
X218630Y-286070D01*
X219380Y-285400D01*
X219930Y-284230D01*
X220030Y-282900D01*
X219820Y-281570D01*
X219270Y-280730D01*
X218520Y-280070D01*
X217760Y-279900D01*
X217000Y-280070D01*
X216030Y-280730D01*
X216350Y-276400D01*
X219270D01*
G01X227150Y-286400D02*
Y-276400D01*
X225850Y-278400D01*
G01Y-286400D02*
X228450D01*
G01X237950D02*
Y-276400D01*
X233940Y-283570D01*
X239360D01*
G01X185870Y-228900D02*
Y-218900D01*
X188030D01*
X188900Y-219400D01*
X189550Y-220070D01*
X190090Y-221070D01*
X190530Y-222230D01*
X190630Y-223900D01*
X190530Y-225570D01*
X190090Y-226730D01*
X189550Y-227730D01*
X188900Y-228400D01*
X188030Y-228900D01*
X185870D01*
G01X195040D02*
X197750Y-218900D01*
X200460Y-228900D01*
G01X199480Y-225400D02*
X196020D01*
G01X207250Y-218900D02*
Y-228900D01*
G01X204760Y-218900D02*
X209740D01*
G01X218920Y-228900D02*
X214580D01*
Y-218900D01*
X218920D01*
G01X217180Y-223730D02*
X214580D01*
G01X222800Y134800D02*
G03I-25500J0D01*
G01X211520Y135000D02*
G03I-14420J0D01*
G01X166900Y134800D02*
X227200D01*
G01X197300Y166900D02*
Y100300D01*
G01X256750Y-152500D02*
Y-142500D01*
X255450Y-144500D01*
G01Y-152500D02*
X258050D01*
G01X266250Y-152830D02*
X266030Y-152670D01*
Y-152330D01*
X266250Y-152170D01*
X266470Y-152330D01*
Y-152670D01*
X266250Y-152830D01*
G01X273690Y-148330D02*
X274450Y-147170D01*
X275100Y-146500D01*
X275970Y-146170D01*
X276730Y-146500D01*
X277270Y-147170D01*
X277700Y-148170D01*
X277810Y-149330D01*
X277700Y-150330D01*
X277270Y-151330D01*
X276620Y-152170D01*
X275860Y-152500D01*
X274990Y-152170D01*
X274230Y-151170D01*
X273800Y-149670D01*
X273690Y-148000D01*
X273910Y-145830D01*
X274230Y-144670D01*
X274770Y-143500D01*
X275530Y-142670D01*
X276290Y-142500D01*
X277050Y-142830D01*
X277590Y-143670D01*
G01X282000Y-152500D02*
Y-145830D01*
G01Y-147670D02*
X282320Y-146830D01*
X282870Y-146170D01*
X283630Y-145830D01*
X284380Y-146170D01*
X284920Y-146830D01*
X285250Y-147670D01*
Y-152500D01*
G01Y-147670D02*
X285580Y-146830D01*
X286120Y-146170D01*
X286870Y-145830D01*
X287630Y-146170D01*
X288180Y-146830D01*
X288500Y-147830D01*
Y-152500D01*
G01X291500D02*
Y-145830D01*
G01Y-147670D02*
X291820Y-146830D01*
X292370Y-146170D01*
X293130Y-145830D01*
X293880Y-146170D01*
X294420Y-146830D01*
X294750Y-147670D01*
Y-152500D01*
G01Y-147670D02*
X295080Y-146830D01*
X295620Y-146170D01*
X296370Y-145830D01*
X297130Y-146170D01*
X297680Y-146830D01*
X298000Y-147830D01*
Y-152500D01*
G01X281650Y-285400D02*
Y-275400D01*
X280350Y-277400D01*
G01Y-285400D02*
X282950D01*
G01X291150Y-285730D02*
X290930Y-285570D01*
Y-285230D01*
X291150Y-285070D01*
X291370Y-285230D01*
Y-285570D01*
X291150Y-285730D01*
G01Y-281230D02*
X290930Y-281070D01*
Y-280730D01*
X291150Y-280570D01*
X291370Y-280730D01*
Y-281070D01*
X291150Y-281230D01*
G01X300650Y-285400D02*
Y-275400D01*
X299350Y-277400D01*
G01Y-285400D02*
X301950D01*
G01X269270Y-227070D02*
X270140Y-227900D01*
X271120Y-228400D01*
X271980D01*
X272850Y-227900D01*
X273500Y-227070D01*
X273830Y-225900D01*
X273610Y-224730D01*
X273070Y-223730D01*
X272090Y-223070D01*
X270790Y-222730D01*
X270030Y-222070D01*
X269710Y-220900D01*
X269930Y-219730D01*
X270470Y-218900D01*
X271220Y-218400D01*
X271980D01*
X272740Y-218730D01*
X273390Y-219570D01*
G01X283430Y-219230D02*
X282780Y-218730D01*
X282030Y-218400D01*
X281160D01*
X280180Y-218900D01*
X279430Y-219730D01*
X278880Y-220730D01*
X278450Y-222400D01*
X278340Y-223900D01*
X278560Y-225400D01*
X278880Y-226400D01*
X279530Y-227400D01*
X280290Y-228070D01*
X281050Y-228400D01*
X281810D01*
X282570Y-228070D01*
X283220Y-227570D01*
X283760Y-226900D01*
G01X287840Y-228400D02*
X290550Y-218400D01*
X293260Y-228400D01*
G01X292280Y-224900D02*
X288820D01*
G01X297880Y-218400D02*
Y-228400D01*
X302220D01*
G01X311720D02*
X307380D01*
Y-218400D01*
X311720D01*
G01X309980Y-223230D02*
X307380D01*
G01X265440Y59500D02*
Y69500D01*
X269560D01*
G01X268040Y64670D02*
X265440D01*
G01X275700Y69500D02*
X278300D01*
G01X277000D02*
Y59500D01*
G01X275700D02*
X278300D01*
G01X287150Y64500D02*
X289320D01*
Y61500D01*
X288670Y60500D01*
X287910Y59830D01*
X286830Y59500D01*
X285740Y59830D01*
X284980Y60500D01*
X284330Y61500D01*
X283900Y62670D01*
X283680Y64000D01*
Y65170D01*
X283900Y66170D01*
X284330Y67330D01*
X284980Y68330D01*
X285630Y69000D01*
X286500Y69500D01*
X287260D01*
X288120Y69170D01*
X288780Y68500D01*
G01X293620Y69500D02*
Y62330D01*
X294050Y60830D01*
X294920Y59830D01*
X296000Y59500D01*
X297080Y59830D01*
X297950Y60830D01*
X298380Y62330D01*
Y69500D01*
G01X303330Y59500D02*
Y69500D01*
X306040D01*
X306910Y69000D01*
X307450Y68330D01*
X307670Y67000D01*
X307450Y65670D01*
X306800Y64830D01*
X306040Y64330D01*
X303330D01*
G01X306040D02*
X307670Y59500D01*
G01X317170D02*
X312830D01*
Y69500D01*
X317170D01*
G01X315430Y64670D02*
X312830D01*
G01X445700Y-142500D02*
X310500D01*
G01Y-155500D02*
X445700D01*
G01X300000Y-142000D02*
X307500D01*
Y-155500D01*
X300500D01*
G01X321870Y104500D02*
Y114500D01*
X324030D01*
X324900Y114000D01*
X325550Y113330D01*
X326090Y112330D01*
X326530Y111170D01*
X326630Y109500D01*
X326530Y107830D01*
X326090Y106670D01*
X325550Y105670D01*
X324900Y105000D01*
X324030Y104500D01*
X321870D01*
G01X331580D02*
Y114500D01*
X334290D01*
X335160Y114000D01*
X335700Y113330D01*
X335920Y112000D01*
X335700Y110670D01*
X335050Y109830D01*
X334290Y109330D01*
X331580D01*
G01X334290D02*
X335920Y104500D01*
G01X341950Y114500D02*
X344550D01*
G01X343250D02*
Y104500D01*
G01X341950D02*
X344550D01*
G01X350580Y114500D02*
Y104500D01*
X354920D01*
G01X360080Y114500D02*
Y104500D01*
X364420D01*
G01X383630Y113670D02*
X382980Y114170D01*
X382230Y114500D01*
X381360D01*
X380380Y114000D01*
X379630Y113170D01*
X379080Y112170D01*
X378650Y110500D01*
X378540Y109000D01*
X378760Y107500D01*
X379080Y106500D01*
X379730Y105500D01*
X380490Y104830D01*
X381250Y104500D01*
X382010D01*
X382770Y104830D01*
X383420Y105330D01*
X383960Y106000D01*
G01X388470Y104500D02*
Y114500D01*
G01X393030D02*
Y104500D01*
G01Y109500D02*
X388470D01*
G01X397540Y104500D02*
X400250Y114500D01*
X402960Y104500D01*
G01X401980Y108000D02*
X398520D01*
G01X407580Y104500D02*
Y114500D01*
X410290D01*
X411160Y114000D01*
X411700Y113330D01*
X411920Y112000D01*
X411700Y110670D01*
X411050Y109830D01*
X410290Y109330D01*
X407580D01*
G01X410290D02*
X411920Y104500D01*
G01X419250Y114500D02*
Y104500D01*
G01X416760Y114500D02*
X421740D01*
G01X428750Y104170D02*
X428530Y104330D01*
Y104670D01*
X428750Y104830D01*
X428970Y104670D01*
Y104330D01*
X428750Y104170D01*
G01Y108670D02*
X428530Y108830D01*
Y109170D01*
X428750Y109330D01*
X428970Y109170D01*
Y108830D01*
X428750Y108670D01*
G01X447750Y114500D02*
Y104500D01*
G01X445260Y114500D02*
X450240D01*
G01X457250Y104500D02*
X456380Y104670D01*
X455630Y105330D01*
X454970Y106330D01*
X454540Y107500D01*
X454320Y108830D01*
Y110170D01*
X454540Y111500D01*
X454970Y112670D01*
X455630Y113670D01*
X456380Y114330D01*
X457250Y114500D01*
X458120Y114330D01*
X458870Y113670D01*
X459530Y112670D01*
X459960Y111500D01*
X460180Y110170D01*
Y108830D01*
X459960Y107500D01*
X459530Y106330D01*
X458870Y105330D01*
X458120Y104670D01*
X457250Y104500D01*
G01X464580D02*
Y114500D01*
X467180D01*
X468050Y114000D01*
X468700Y112830D01*
X468920Y111500D01*
X468700Y110170D01*
X468160Y109170D01*
X467180Y108670D01*
X464580D01*
G01X485750Y114500D02*
Y104500D01*
G01X484230Y111170D02*
X487270D01*
G01X495250Y104500D02*
X494600Y104670D01*
X493950Y105330D01*
X493520Y106500D01*
X493300Y107830D01*
X493520Y109170D01*
X493950Y110330D01*
X494600Y111000D01*
X495250Y111170D01*
X495900Y111000D01*
X496550Y110330D01*
X496980Y109170D01*
X497090Y107830D01*
X496980Y106500D01*
X496550Y105330D01*
X495900Y104670D01*
X495250Y104500D01*
G01X515120Y109830D02*
X515550Y110330D01*
X515870Y111170D01*
X516090Y112330D01*
X515870Y113330D01*
X515440Y114000D01*
X514680Y114500D01*
X511760D01*
Y104500D01*
X515330D01*
X516090Y105170D01*
X516530Y106170D01*
X516740Y107330D01*
X516530Y108500D01*
X515870Y109500D01*
X515120Y109830D01*
X511760D01*
G01X523750Y104500D02*
X522880Y104670D01*
X522130Y105330D01*
X521470Y106330D01*
X521040Y107500D01*
X520820Y108830D01*
Y110170D01*
X521040Y111500D01*
X521470Y112670D01*
X522130Y113670D01*
X522880Y114330D01*
X523750Y114500D01*
X524620Y114330D01*
X525370Y113670D01*
X526030Y112670D01*
X526460Y111500D01*
X526680Y110170D01*
Y108830D01*
X526460Y107500D01*
X526030Y106330D01*
X525370Y105330D01*
X524620Y104670D01*
X523750Y104500D01*
G01X533250Y114500D02*
Y104500D01*
G01X530760Y114500D02*
X535740D01*
G01X542750D02*
Y104500D01*
G01X540260Y114500D02*
X545240D01*
G01X552250Y104500D02*
X551380Y104670D01*
X550630Y105330D01*
X549970Y106330D01*
X549540Y107500D01*
X549320Y108830D01*
Y110170D01*
X549540Y111500D01*
X549970Y112670D01*
X550630Y113670D01*
X551380Y114330D01*
X552250Y114500D01*
X553120Y114330D01*
X553870Y113670D01*
X554530Y112670D01*
X554960Y111500D01*
X555180Y110170D01*
Y108830D01*
X554960Y107500D01*
X554530Y106330D01*
X553870Y105330D01*
X553120Y104670D01*
X552250Y104500D01*
G01X558930D02*
Y114500D01*
X561750Y106170D01*
X564570Y114500D01*
Y104500D01*
G01X345290Y79500D02*
X348000Y89500D01*
X350710Y79500D01*
G01X349730Y83000D02*
X346270D01*
G01X355330Y89500D02*
Y79500D01*
X359670D01*
G01X364830Y89500D02*
Y79500D01*
X369170D01*
G01X383620Y89500D02*
Y82330D01*
X384050Y80830D01*
X384920Y79830D01*
X386000Y79500D01*
X387080Y79830D01*
X387950Y80830D01*
X388380Y82330D01*
Y89500D01*
G01X393010Y79500D02*
Y89500D01*
X397990Y79500D01*
Y89500D01*
G01X403700D02*
X406300D01*
G01X405000D02*
Y79500D01*
G01X403700D02*
X406300D01*
G01X414500Y89500D02*
Y79500D01*
G01X412010Y89500D02*
X416990D01*
G01X421720Y80830D02*
X422590Y80000D01*
X423570Y79500D01*
X424430D01*
X425300Y80000D01*
X425950Y80830D01*
X426280Y82000D01*
X426060Y83170D01*
X425520Y84170D01*
X424540Y84830D01*
X423240Y85170D01*
X422480Y85830D01*
X422160Y87000D01*
X422380Y88170D01*
X422920Y89000D01*
X423670Y89500D01*
X424430D01*
X425190Y89170D01*
X425840Y88330D01*
G01X440290Y79500D02*
X443000Y89500D01*
X445710Y79500D01*
G01X444730Y83000D02*
X441270D01*
G01X450330Y79500D02*
Y89500D01*
X453040D01*
X453910Y89000D01*
X454450Y88330D01*
X454670Y87000D01*
X454450Y85670D01*
X453800Y84830D01*
X453040Y84330D01*
X450330D01*
G01X453040D02*
X454670Y79500D01*
G01X464170D02*
X459830D01*
Y89500D01*
X464170D01*
G01X462430Y84670D02*
X459830D01*
G01X479700Y89500D02*
X482300D01*
G01X481000D02*
Y79500D01*
G01X479700D02*
X482300D01*
G01X488010D02*
Y89500D01*
X492990Y79500D01*
Y89500D01*
G01X506680Y79500D02*
Y89500D01*
X509500Y81170D01*
X512320Y89500D01*
Y79500D01*
G01X517700Y89500D02*
X520300D01*
G01X519000D02*
Y79500D01*
G01X517700D02*
X520300D01*
G01X526330Y89500D02*
Y79500D01*
X530670D01*
G01X535720Y80830D02*
X536590Y80000D01*
X537570Y79500D01*
X538430D01*
X539300Y80000D01*
X539950Y80830D01*
X540280Y82000D01*
X540060Y83170D01*
X539520Y84170D01*
X538540Y84830D01*
X537240Y85170D01*
X536480Y85830D01*
X536160Y87000D01*
X536380Y88170D01*
X536920Y89000D01*
X537670Y89500D01*
X538430D01*
X539190Y89170D01*
X539840Y88330D01*
G01X394370Y-287000D02*
Y-277000D01*
X396530D01*
X397400Y-277500D01*
X398050Y-278170D01*
X398590Y-279170D01*
X399030Y-280330D01*
X399130Y-282000D01*
X399030Y-283670D01*
X398590Y-284830D01*
X398050Y-285830D01*
X397400Y-286500D01*
X396530Y-287000D01*
X394370D01*
G01X404730D02*
Y-280330D01*
G01Y-281670D02*
X405270Y-281000D01*
X405820Y-280500D01*
X406580Y-280330D01*
X407120Y-280500D01*
X407770Y-281000D01*
G01X415750Y-280330D02*
Y-287000D01*
G01Y-277670D02*
X415530Y-277500D01*
Y-277170D01*
X415750Y-277000D01*
X415970Y-277170D01*
Y-277500D01*
X415750Y-277670D01*
G01X425250Y-287000D02*
Y-277000D01*
G01X434750Y-287000D02*
Y-277000D01*
G01X399670Y-227270D02*
X400540Y-228100D01*
X401520Y-228600D01*
X402380D01*
X403250Y-228100D01*
X403900Y-227270D01*
X404230Y-226100D01*
X404010Y-224930D01*
X403470Y-223930D01*
X402490Y-223270D01*
X401190Y-222930D01*
X400430Y-222270D01*
X400110Y-221100D01*
X400330Y-219930D01*
X400870Y-219100D01*
X401620Y-218600D01*
X402380D01*
X403140Y-218930D01*
X403790Y-219770D01*
G01X410150Y-218600D02*
X412750D01*
G01X411450D02*
Y-228600D01*
G01X410150D02*
X412750D01*
G01X418570D02*
Y-218600D01*
X420730D01*
X421600Y-219100D01*
X422250Y-219770D01*
X422790Y-220770D01*
X423230Y-221930D01*
X423330Y-223600D01*
X423230Y-225270D01*
X422790Y-226430D01*
X422250Y-227430D01*
X421600Y-228100D01*
X420730Y-228600D01*
X418570D01*
G01X432620D02*
X428280D01*
Y-218600D01*
X432620D01*
G01X430880Y-223430D02*
X428280D01*
G01X382120Y-19000D02*
X382770Y-19830D01*
X383520Y-20330D01*
X384500Y-20500D01*
X385480Y-20170D01*
X386230Y-19500D01*
X386780Y-18330D01*
X386880Y-17000D01*
X386670Y-15670D01*
X386120Y-14830D01*
X385370Y-14170D01*
X384610Y-14000D01*
X383850Y-14170D01*
X382880Y-14830D01*
X383200Y-10500D01*
X386120D01*
G01X392160Y-19330D02*
X392920Y-20170D01*
X393780Y-20500D01*
X394650Y-20170D01*
X395410Y-19170D01*
X395950Y-17670D01*
X396170Y-16170D01*
Y-14330D01*
X395950Y-12830D01*
X395410Y-11500D01*
X394760Y-10830D01*
X394000Y-10500D01*
X393130Y-10830D01*
X392480Y-11500D01*
X392050Y-12500D01*
X391830Y-13830D01*
X392050Y-15000D01*
X392590Y-16170D01*
X393240Y-16830D01*
X394000Y-17000D01*
X394870Y-16670D01*
X395520Y-15830D01*
X396170Y-14330D01*
G01X403500Y-20830D02*
X403280Y-20670D01*
Y-20330D01*
X403500Y-20170D01*
X403720Y-20330D01*
Y-20670D01*
X403500Y-20830D01*
G01X413000Y-20500D02*
Y-10500D01*
X411700Y-12500D01*
G01Y-20500D02*
X414300D01*
G01X384280Y-40500D02*
X384500Y-38330D01*
X384830Y-36500D01*
X385260Y-34830D01*
X385800Y-33000D01*
X386670Y-30500D01*
X382330D01*
G01X394000Y-40500D02*
X394760Y-40330D01*
X395620Y-39830D01*
X396170Y-39000D01*
X396380Y-37830D01*
X396170Y-36670D01*
X395520Y-35670D01*
X394540Y-35170D01*
X393460D01*
X392810Y-34830D01*
X392270Y-34000D01*
X392050Y-32830D01*
X392380Y-31670D01*
X393130Y-30830D01*
X394000Y-30500D01*
X394870Y-30830D01*
X395620Y-31670D01*
X395950Y-32830D01*
X395730Y-34000D01*
X395190Y-34830D01*
X394540Y-35170D01*
X393460D01*
X392480Y-35670D01*
X391830Y-36670D01*
X391620Y-37830D01*
X391830Y-39000D01*
X392380Y-39830D01*
X393240Y-40330D01*
X394000Y-40500D01*
G01X403500Y-40830D02*
X403280Y-40670D01*
Y-40330D01*
X403500Y-40170D01*
X403720Y-40330D01*
Y-40670D01*
X403500Y-40830D01*
G01X412780Y-40500D02*
X413000Y-38330D01*
X413330Y-36500D01*
X413760Y-34830D01*
X414300Y-33000D01*
X415170Y-30500D01*
X410830D01*
G01X382440Y7830D02*
X383090Y8830D01*
X383850Y9330D01*
X384720Y9500D01*
X385800Y9170D01*
X386560Y8330D01*
X386780Y7330D01*
X386670Y6330D01*
X386230Y5500D01*
X384070Y3830D01*
X383090Y2670D01*
X382440Y1000D01*
X382220Y-500D01*
X386780D01*
G01X393780D02*
X394000Y1670D01*
X394330Y3500D01*
X394760Y5170D01*
X395300Y7000D01*
X396170Y9500D01*
X391830D01*
G01X403500Y-830D02*
X403280Y-670D01*
Y-330D01*
X403500Y-170D01*
X403720Y-330D01*
Y-670D01*
X403500Y-830D01*
G01X410940Y3670D02*
X411700Y4830D01*
X412350Y5500D01*
X413220Y5830D01*
X413980Y5500D01*
X414520Y4830D01*
X414950Y3830D01*
X415060Y2670D01*
X414950Y1670D01*
X414520Y670D01*
X413870Y-170D01*
X413110Y-500D01*
X412240Y-170D01*
X411480Y830D01*
X411050Y2330D01*
X410940Y4000D01*
X411160Y6170D01*
X411480Y7330D01*
X412020Y8500D01*
X412780Y9330D01*
X413540Y9500D01*
X414300Y9170D01*
X414840Y8330D01*
G01X384500Y39500D02*
Y49500D01*
X383200Y47500D01*
G01Y39500D02*
X385800D01*
G01X394000Y49500D02*
X393130Y49170D01*
X392480Y48330D01*
X392050Y47330D01*
X391720Y46000D01*
X391620Y44500D01*
X391720Y43000D01*
X392050Y41670D01*
X392480Y40670D01*
X393130Y39830D01*
X394000Y39500D01*
X394870Y39830D01*
X395520Y40670D01*
X395950Y41670D01*
X396280Y43000D01*
X396380Y44500D01*
X396280Y46000D01*
X395950Y47330D01*
X395520Y48330D01*
X394870Y49170D01*
X394000Y49500D01*
G01X403500Y39170D02*
X403280Y39330D01*
Y39670D01*
X403500Y39830D01*
X403720Y39670D01*
Y39330D01*
X403500Y39170D01*
G01X413000Y49500D02*
X412130Y49170D01*
X411480Y48330D01*
X411050Y47330D01*
X410720Y46000D01*
X410620Y44500D01*
X410720Y43000D01*
X411050Y41670D01*
X411480Y40670D01*
X412130Y39830D01*
X413000Y39500D01*
X413870Y39830D01*
X414520Y40670D01*
X414950Y41670D01*
X415280Y43000D01*
X415380Y44500D01*
X415280Y46000D01*
X414950Y47330D01*
X414520Y48330D01*
X413870Y49170D01*
X413000Y49500D01*
G01X382440Y27830D02*
X383090Y28830D01*
X383850Y29330D01*
X384720Y29500D01*
X385800Y29170D01*
X386560Y28330D01*
X386780Y27330D01*
X386670Y26330D01*
X386230Y25500D01*
X384070Y23830D01*
X383090Y22670D01*
X382440Y21000D01*
X382220Y19500D01*
X386780D01*
G01X394000Y29500D02*
X393130Y29170D01*
X392480Y28330D01*
X392050Y27330D01*
X391720Y26000D01*
X391620Y24500D01*
X391720Y23000D01*
X392050Y21670D01*
X392480Y20670D01*
X393130Y19830D01*
X394000Y19500D01*
X394870Y19830D01*
X395520Y20670D01*
X395950Y21670D01*
X396280Y23000D01*
X396380Y24500D01*
X396280Y26000D01*
X395950Y27330D01*
X395520Y28330D01*
X394870Y29170D01*
X394000Y29500D01*
G01X403500Y19170D02*
X403280Y19330D01*
Y19670D01*
X403500Y19830D01*
X403720Y19670D01*
Y19330D01*
X403500Y19170D01*
G01X413000Y29500D02*
X412130Y29170D01*
X411480Y28330D01*
X411050Y27330D01*
X410720Y26000D01*
X410620Y24500D01*
X410720Y23000D01*
X411050Y21670D01*
X411480Y20670D01*
X412130Y19830D01*
X413000Y19500D01*
X413870Y19830D01*
X414520Y20670D01*
X414950Y21670D01*
X415280Y23000D01*
X415380Y24500D01*
X415280Y26000D01*
X414950Y27330D01*
X414520Y28330D01*
X413870Y29170D01*
X413000Y29500D01*
G01X382220Y60830D02*
X383090Y60000D01*
X384070Y59500D01*
X384930D01*
X385800Y60000D01*
X386450Y60830D01*
X386780Y62000D01*
X386560Y63170D01*
X386020Y64170D01*
X385040Y64830D01*
X383740Y65170D01*
X382980Y65830D01*
X382660Y67000D01*
X382880Y68170D01*
X383420Y69000D01*
X384170Y69500D01*
X384930D01*
X385690Y69170D01*
X386340Y68330D01*
G01X392700Y69500D02*
X395300D01*
G01X394000D02*
Y59500D01*
G01X392700D02*
X395300D01*
G01X401440Y69500D02*
X405560D01*
X401440Y59500D01*
X405560D01*
G01X415170D02*
X410830D01*
Y69500D01*
X415170D01*
G01X413430Y64670D02*
X410830D01*
G01X454850Y-136400D02*
Y-144400D01*
G01X452740Y-136400D02*
X456960D01*
G01X461850Y-144400D02*
X461120Y-144270D01*
X460480Y-143730D01*
X459920Y-142930D01*
X459560Y-142000D01*
X459370Y-140930D01*
Y-139870D01*
X459560Y-138800D01*
X459920Y-137870D01*
X460480Y-137070D01*
X461120Y-136530D01*
X461850Y-136400D01*
X462580Y-136530D01*
X463220Y-137070D01*
X463780Y-137870D01*
X464140Y-138800D01*
X464330Y-139870D01*
Y-140930D01*
X464140Y-142000D01*
X463780Y-142930D01*
X463220Y-143730D01*
X462580Y-144270D01*
X461850Y-144400D01*
G01X467020D02*
Y-136400D01*
X469220D01*
X469950Y-136800D01*
X470500Y-137730D01*
X470680Y-138800D01*
X470500Y-139870D01*
X470040Y-140670D01*
X469220Y-141070D01*
X467020D01*
G01X456980Y-153230D02*
X457350Y-152830D01*
X457620Y-152170D01*
X457810Y-151230D01*
X457620Y-150430D01*
X457260Y-149900D01*
X456620Y-149500D01*
X454140D01*
Y-157500D01*
X457170D01*
X457810Y-156970D01*
X458180Y-156170D01*
X458360Y-155230D01*
X458180Y-154300D01*
X457620Y-153500D01*
X456980Y-153230D01*
X454140D01*
G01X463250Y-157500D02*
X462520Y-157370D01*
X461880Y-156830D01*
X461320Y-156030D01*
X460960Y-155100D01*
X460770Y-154030D01*
Y-152970D01*
X460960Y-151900D01*
X461320Y-150970D01*
X461880Y-150170D01*
X462520Y-149630D01*
X463250Y-149500D01*
X463980Y-149630D01*
X464620Y-150170D01*
X465180Y-150970D01*
X465540Y-151900D01*
X465730Y-152970D01*
Y-154030D01*
X465540Y-155100D01*
X465180Y-156030D01*
X464620Y-156830D01*
X463980Y-157370D01*
X463250Y-157500D01*
G01X470250Y-149500D02*
Y-157500D01*
G01X468140Y-149500D02*
X472360D01*
G01X477250D02*
Y-157500D01*
G01X475140Y-149500D02*
X479360D01*
G01X484250Y-157500D02*
X483520Y-157370D01*
X482880Y-156830D01*
X482320Y-156030D01*
X481960Y-155100D01*
X481770Y-154030D01*
Y-152970D01*
X481960Y-151900D01*
X482320Y-150970D01*
X482880Y-150170D01*
X483520Y-149630D01*
X484250Y-149500D01*
X484980Y-149630D01*
X485620Y-150170D01*
X486180Y-150970D01*
X486540Y-151900D01*
X486730Y-152970D01*
Y-154030D01*
X486540Y-155100D01*
X486180Y-156030D01*
X485620Y-156830D01*
X484980Y-157370D01*
X484250Y-157500D01*
G01X488870D02*
Y-149500D01*
X491250Y-156170D01*
X493630Y-149500D01*
Y-157500D01*
G01X494580Y-20500D02*
Y-10500D01*
X497180D01*
X498050Y-11000D01*
X498700Y-12170D01*
X498920Y-13500D01*
X498700Y-14830D01*
X498160Y-15830D01*
X497180Y-16330D01*
X494580D01*
G01X504080Y-10500D02*
Y-20500D01*
X508420D01*
G01X513040D02*
X515750Y-10500D01*
X518460Y-20500D01*
G01X517480Y-17000D02*
X514020D01*
G01X525250Y-10500D02*
Y-20500D01*
G01X522760Y-10500D02*
X527740D01*
G01X536920Y-20500D02*
X532580D01*
Y-10500D01*
X536920D01*
G01X535180Y-15330D02*
X532580D01*
G01X541870Y-20500D02*
Y-10500D01*
X544030D01*
X544900Y-11000D01*
X545550Y-11670D01*
X546090Y-12670D01*
X546530Y-13830D01*
X546630Y-15500D01*
X546530Y-17170D01*
X546090Y-18330D01*
X545550Y-19330D01*
X544900Y-20000D01*
X544030Y-20500D01*
X541870D01*
G01X494580Y-40500D02*
Y-30500D01*
X497180D01*
X498050Y-31000D01*
X498700Y-32170D01*
X498920Y-33500D01*
X498700Y-34830D01*
X498160Y-35830D01*
X497180Y-36330D01*
X494580D01*
G01X504080Y-30500D02*
Y-40500D01*
X508420D01*
G01X513040D02*
X515750Y-30500D01*
X518460Y-40500D01*
G01X517480Y-37000D02*
X514020D01*
G01X525250Y-30500D02*
Y-40500D01*
G01X522760Y-30500D02*
X527740D01*
G01X536920Y-40500D02*
X532580D01*
Y-30500D01*
X536920D01*
G01X535180Y-35330D02*
X532580D01*
G01X541870Y-40500D02*
Y-30500D01*
X544030D01*
X544900Y-31000D01*
X545550Y-31670D01*
X546090Y-32670D01*
X546530Y-33830D01*
X546630Y-35500D01*
X546530Y-37170D01*
X546090Y-38330D01*
X545550Y-39330D01*
X544900Y-40000D01*
X544030Y-40500D01*
X541870D01*
G01X494580Y-500D02*
Y9500D01*
X497180D01*
X498050Y9000D01*
X498700Y7830D01*
X498920Y6500D01*
X498700Y5170D01*
X498160Y4170D01*
X497180Y3670D01*
X494580D01*
G01X504080Y9500D02*
Y-500D01*
X508420D01*
G01X513040D02*
X515750Y9500D01*
X518460Y-500D01*
G01X517480Y3000D02*
X514020D01*
G01X525250Y9500D02*
Y-500D01*
G01X522760Y9500D02*
X527740D01*
G01X536920Y-500D02*
X532580D01*
Y9500D01*
X536920D01*
G01X535180Y4670D02*
X532580D01*
G01X541870Y-500D02*
Y9500D01*
X544030D01*
X544900Y9000D01*
X545550Y8330D01*
X546090Y7330D01*
X546530Y6170D01*
X546630Y4500D01*
X546530Y2830D01*
X546090Y1670D01*
X545550Y670D01*
X544900Y0D01*
X544030Y-500D01*
X541870D01*
G01X494580Y39500D02*
Y49500D01*
X497180D01*
X498050Y49000D01*
X498700Y47830D01*
X498920Y46500D01*
X498700Y45170D01*
X498160Y44170D01*
X497180Y43670D01*
X494580D01*
G01X504080Y49500D02*
Y39500D01*
X508420D01*
G01X513040D02*
X515750Y49500D01*
X518460Y39500D01*
G01X517480Y43000D02*
X514020D01*
G01X525250Y49500D02*
Y39500D01*
G01X522760Y49500D02*
X527740D01*
G01X536920Y39500D02*
X532580D01*
Y49500D01*
X536920D01*
G01X535180Y44670D02*
X532580D01*
G01X541870Y39500D02*
Y49500D01*
X544030D01*
X544900Y49000D01*
X545550Y48330D01*
X546090Y47330D01*
X546530Y46170D01*
X546630Y44500D01*
X546530Y42830D01*
X546090Y41670D01*
X545550Y40670D01*
X544900Y40000D01*
X544030Y39500D01*
X541870D01*
G01X494580Y19500D02*
Y29500D01*
X497180D01*
X498050Y29000D01*
X498700Y27830D01*
X498920Y26500D01*
X498700Y25170D01*
X498160Y24170D01*
X497180Y23670D01*
X494580D01*
G01X504080Y29500D02*
Y19500D01*
X508420D01*
G01X513040D02*
X515750Y29500D01*
X518460Y19500D01*
G01X517480Y23000D02*
X514020D01*
G01X525250Y29500D02*
Y19500D01*
G01X522760Y29500D02*
X527740D01*
G01X536920Y19500D02*
X532580D01*
Y29500D01*
X536920D01*
G01X535180Y24670D02*
X532580D01*
G01X541870Y19500D02*
Y29500D01*
X544030D01*
X544900Y29000D01*
X545550Y28330D01*
X546090Y27330D01*
X546530Y26170D01*
X546630Y24500D01*
X546530Y22830D01*
X546090Y21670D01*
X545550Y20670D01*
X544900Y20000D01*
X544030Y19500D01*
X541870D01*
G01X494580Y59500D02*
Y69500D01*
X497180D01*
X498050Y69000D01*
X498700Y67830D01*
X498920Y66500D01*
X498700Y65170D01*
X498160Y64170D01*
X497180Y63670D01*
X494580D01*
G01X504080Y69500D02*
Y59500D01*
X508420D01*
G01X513040D02*
X515750Y69500D01*
X518460Y59500D01*
G01X517480Y63000D02*
X514020D01*
G01X525250Y69500D02*
Y59500D01*
G01X522760Y69500D02*
X527740D01*
G01X536920Y59500D02*
X532580D01*
Y69500D01*
X536920D01*
G01X535180Y64670D02*
X532580D01*
G01X541870Y59500D02*
Y69500D01*
X544030D01*
X544900Y69000D01*
X545550Y68330D01*
X546090Y67330D01*
X546530Y66170D01*
X546630Y64500D01*
X546530Y62830D01*
X546090Y61670D01*
X545550Y60670D01*
X544900Y60000D01*
X544030Y59500D01*
X541870D01*
G01X594750Y-20500D02*
Y-10500D01*
X593450Y-12500D01*
G01Y-20500D02*
X596050D01*
G01X604250Y-10500D02*
X603380Y-10830D01*
X602730Y-11670D01*
X602300Y-12670D01*
X601970Y-14000D01*
X601870Y-15500D01*
X601970Y-17000D01*
X602300Y-18330D01*
X602730Y-19330D01*
X603380Y-20170D01*
X604250Y-20500D01*
X605120Y-20170D01*
X605770Y-19330D01*
X606200Y-18330D01*
X606530Y-17000D01*
X606630Y-15500D01*
X606530Y-14000D01*
X606200Y-12670D01*
X605770Y-11670D01*
X605120Y-10830D01*
X604250Y-10500D01*
G01X597120Y-38500D02*
X597770Y-39670D01*
X598630Y-40330D01*
X599610Y-40500D01*
X600480Y-40330D01*
X601340Y-39500D01*
X601880Y-38500D01*
X601990Y-37500D01*
X601780Y-36330D01*
X601020Y-35500D01*
X600260Y-35170D01*
X599280D01*
G01X600260D02*
X600910Y-34670D01*
X601450Y-33830D01*
X601670Y-32830D01*
X601450Y-31830D01*
X600910Y-31000D01*
X599930Y-30500D01*
X598960Y-30670D01*
X597980Y-31330D01*
G01X597440Y7830D02*
X598090Y8830D01*
X598850Y9330D01*
X599720Y9500D01*
X600800Y9170D01*
X601560Y8330D01*
X601780Y7330D01*
X601670Y6330D01*
X601230Y5500D01*
X599070Y3830D01*
X598090Y2670D01*
X597440Y1000D01*
X597220Y-500D01*
X601780D01*
G01X594750Y39500D02*
X595510Y39670D01*
X596370Y40170D01*
X596920Y41000D01*
X597130Y42170D01*
X596920Y43330D01*
X596270Y44330D01*
X595290Y44830D01*
X594210D01*
X593560Y45170D01*
X593020Y46000D01*
X592800Y47170D01*
X593130Y48330D01*
X593880Y49170D01*
X594750Y49500D01*
X595620Y49170D01*
X596370Y48330D01*
X596700Y47170D01*
X596480Y46000D01*
X595940Y45170D01*
X595290Y44830D01*
X594210D01*
X593230Y44330D01*
X592580Y43330D01*
X592370Y42170D01*
X592580Y41000D01*
X593130Y40170D01*
X593990Y39670D01*
X594750Y39500D01*
G01X604250D02*
Y49500D01*
X602950Y47500D01*
G01Y39500D02*
X605550D01*
G01X594750Y19500D02*
Y29500D01*
X593450Y27500D01*
G01Y19500D02*
X596050D01*
G01X604250D02*
Y29500D01*
X602950Y27500D01*
G01Y19500D02*
X605550D01*
G01X590000Y59500D02*
X589130Y59670D01*
X588380Y60330D01*
X587720Y61330D01*
X587290Y62500D01*
X587070Y63830D01*
Y65170D01*
X587290Y66500D01*
X587720Y67670D01*
X588380Y68670D01*
X589130Y69330D01*
X590000Y69500D01*
X590870Y69330D01*
X591620Y68670D01*
X592280Y67670D01*
X592710Y66500D01*
X592930Y65170D01*
Y63830D01*
X592710Y62500D01*
X592280Y61330D01*
X591620Y60330D01*
X590870Y59670D01*
X590000Y59500D01*
G01X590870Y62170D02*
X592170Y59500D01*
G01X599500Y69500D02*
Y59500D01*
G01X597010Y69500D02*
X601990D01*
G01X609000Y59500D02*
Y64000D01*
X606830Y69500D01*
G01X611170D02*
X609000Y64000D01*
G54D16*
G01X206200Y-191100D02*
X497100D01*
Y-313200D01*
X-145400D01*
Y-191100D01*
X242000D01*
G01X495900Y-252500D02*
X-16500D01*
Y-313200D01*
G01Y-252500D02*
Y-191100D01*
G01X155600Y-192000D02*
Y-313000D01*
G01X250400Y-191900D02*
Y-312900D01*
G01X310500Y-142500D02*
Y-155500D01*
G01X331800Y-192500D02*
Y-313500D01*
M02*
