G04 ================== begin FILE IDENTIFICATION RECORD ==================*
G04 Layout Name:  C:/Users/53466/Desktop/RAY/Hand-0518-a.brd*
G04 Film Name:    SILKSCREENTOP*
G04 File Format:  Gerber RS274X*
G04 File Origin:  Cadence Allegro 16.6-2015-S088*
G04 Origin Date:  Tue May 18 18:12:47 2021*
G04 *
G04 Layer:  PACKAGE GEOMETRY/SILKSCREEN_TOP*
G04 Layer:  MANUFACTURING/PHOTOPLOT_OUTLINE*
G04 Layer:  MANUFACTURING/PEN3-SKTOP*
G04 Layer:  MANUFACTURING/PEN3*
G04 Layer:  REF DES/SILKSCREEN_TOP*
G04 Layer:  BOARD GEOMETRY/SILKSCREEN_TOP*
G04 *
G04 Offset:    (0.0 0.0)*
G04 Mirror:    No*
G04 Mode:      Positive*
G04 Rotation:  0*
G04 FullContactRelief:  No*
G04 UndefLineWidth:     5.0*
G04 ================== end FILE IDENTIFICATION RECORD ====================*
%FSLAX25Y25*MOIN*%
%IR0*IPPOS*OFA0.00000B0.00000*MIA0B0*SFA1.00000B1.00000*%
%ADD10C,.005*%
%ADD11C,.0047*%
%ADD12C,.0049*%
%ADD13C,.01*%
%ADD14C,.02*%
G75*
%LPD*%
G75*
G36*
G01X-50590Y-71820D02*
X-44090Y-71730D01*
X-43330Y-75920D01*
X-40460Y-81180D01*
X-36520Y-84130D01*
X-32300Y-85470D01*
X-29500Y-85830D01*
X-29350Y-96930D01*
X-35560Y-96420D01*
X-42800Y-93310D01*
X-47550Y-89580D01*
X-50810Y-85120D01*
X-54190Y-78960D01*
X-55180Y-72680D01*
X-54990Y-71570D01*
X-50590Y-71820D01*
G37*
G36*
G01X-35300Y-71400D02*
X-43300Y-71200D01*
X-43700Y-71100D01*
X-41600Y-64200D01*
X-39300Y-61100D01*
X-36300Y-59000D01*
X-33100Y-57600D01*
X-29600Y-57300D01*
X-29700Y-71200D01*
X-35300Y-71400D01*
G37*
G36*
G01X-23400Y-71600D02*
X-15400Y-71800D01*
X-15000Y-71900D01*
X-17100Y-78800D01*
X-19400Y-81900D01*
X-22400Y-84000D01*
X-25600Y-85400D01*
X-29100Y-85700D01*
X-29000Y-71800D01*
X-23400Y-71600D01*
G37*
G36*
G01X-8500Y-71500D02*
X-15000D01*
X-15700Y-67300D01*
X-18500Y-62000D01*
X-22400Y-59000D01*
X-26600Y-57600D01*
X-29400Y-57200D01*
Y-46100D01*
X-23200Y-46700D01*
X-16000Y-49900D01*
X-11300Y-53700D01*
X-8100Y-58200D01*
X-4800Y-64400D01*
X-3900Y-70700D01*
X-4100Y-71800D01*
X-8500Y-71500D01*
G37*
G36*
G01X70280Y87750D02*
X66340D01*
X68350Y83810D01*
X70280Y87750D01*
G37*
G36*
G01X88350Y33480D02*
G03I-878J-4D01*
G37*
G36*
G01X99920Y17180D02*
G03I-1577J-3D01*
G37*
G36*
G01X218000Y135000D02*
X211500D01*
X210800Y139200D01*
X208000Y144500D01*
X204100Y147500D01*
X199900Y148900D01*
X197100Y149300D01*
Y160400D01*
X203300Y159800D01*
X210500Y156600D01*
X215200Y152800D01*
X218400Y148300D01*
X221700Y142100D01*
X222600Y135800D01*
X222400Y134700D01*
X218000Y135000D01*
G37*
G54D10*
G01X3210Y19000D02*
X4250Y16000D01*
X5290Y19000D01*
G01X6250D02*
X7250D01*
G01X6750D02*
Y16000D01*
G01X6250D02*
X7250D01*
G01X8290D02*
Y19000D01*
X10210Y16000D01*
Y19000D01*
G01X710Y38000D02*
X1750Y35000D01*
X2790Y38000D01*
G01X4250Y35000D02*
X3920Y35050D01*
X3630Y35250D01*
X3370Y35550D01*
X3210Y35900D01*
X3120Y36300D01*
Y36700D01*
X3210Y37100D01*
X3370Y37450D01*
X3630Y37750D01*
X3920Y37950D01*
X4250Y38000D01*
X4580Y37950D01*
X4870Y37750D01*
X5130Y37450D01*
X5290Y37100D01*
X5380Y36700D01*
Y36300D01*
X5290Y35900D01*
X5130Y35550D01*
X4870Y35250D01*
X4580Y35050D01*
X4250Y35000D01*
G01X5830Y38000D02*
Y35850D01*
X6000Y35400D01*
X6330Y35100D01*
X6750Y35000D01*
X7170Y35100D01*
X7500Y35400D01*
X7670Y35850D01*
Y38000D01*
G01X9250D02*
Y35000D01*
G01X8290Y38000D02*
X10210D01*
G01X15100Y26450D02*
Y23450D01*
G01X14140Y26450D02*
X16060D01*
G01X17600Y23450D02*
Y26450D01*
X17100Y25850D01*
G01Y23450D02*
X18100D01*
G01X20100Y26450D02*
X19770Y26350D01*
X19520Y26100D01*
X19350Y25800D01*
X19220Y25400D01*
X19180Y24950D01*
X19220Y24500D01*
X19350Y24100D01*
X19520Y23800D01*
X19770Y23550D01*
X20100Y23450D01*
X20430Y23550D01*
X20680Y23800D01*
X20850Y24100D01*
X20980Y24500D01*
X21020Y24950D01*
X20980Y25400D01*
X20850Y25800D01*
X20680Y26100D01*
X20430Y26350D01*
X20100Y26450D01*
G01X3500Y57000D02*
X4330D01*
Y56100D01*
X4080Y55800D01*
X3790Y55600D01*
X3380Y55500D01*
X2960Y55600D01*
X2670Y55800D01*
X2420Y56100D01*
X2250Y56450D01*
X2170Y56850D01*
Y57200D01*
X2250Y57500D01*
X2420Y57850D01*
X2670Y58150D01*
X2920Y58350D01*
X3250Y58500D01*
X3540D01*
X3870Y58400D01*
X4130Y58200D01*
G01X4790Y55500D02*
Y58500D01*
X6710Y55500D01*
Y58500D01*
G01X7330Y55500D02*
Y58500D01*
X8170D01*
X8500Y58350D01*
X8750Y58150D01*
X8960Y57850D01*
X9130Y57500D01*
X9170Y57000D01*
X9130Y56500D01*
X8960Y56150D01*
X8750Y55850D01*
X8500Y55650D01*
X8170Y55500D01*
X7330D01*
G01X15100Y46280D02*
Y43280D01*
G01X14140Y46280D02*
X16060D01*
G01X16890Y43630D02*
X17180Y43380D01*
X17520Y43280D01*
X17850Y43380D01*
X18140Y43680D01*
X18350Y44130D01*
X18430Y44580D01*
Y45130D01*
X18350Y45580D01*
X18140Y45980D01*
X17890Y46180D01*
X17600Y46280D01*
X17270Y46180D01*
X17020Y45980D01*
X16850Y45680D01*
X16770Y45280D01*
X16850Y44930D01*
X17060Y44580D01*
X17310Y44380D01*
X17600Y44330D01*
X17930Y44430D01*
X18180Y44680D01*
X18430Y45130D01*
G01X15100Y69610D02*
Y66610D01*
G01X14140Y69610D02*
X16060D01*
G01X17600Y66610D02*
X17890Y66660D01*
X18220Y66810D01*
X18430Y67060D01*
X18520Y67410D01*
X18430Y67760D01*
X18180Y68060D01*
X17810Y68210D01*
X17390D01*
X17140Y68310D01*
X16930Y68560D01*
X16850Y68910D01*
X16980Y69260D01*
X17270Y69510D01*
X17600Y69610D01*
X17930Y69510D01*
X18220Y69260D01*
X18350Y68910D01*
X18270Y68560D01*
X18060Y68310D01*
X17810Y68210D01*
X17390D01*
X17020Y68060D01*
X16770Y67760D01*
X16680Y67410D01*
X16770Y67060D01*
X16980Y66810D01*
X17310Y66660D01*
X17600Y66610D01*
G01X25000Y-34750D02*
Y-33750D01*
G01Y-34250D02*
X28000D01*
G01Y-34750D02*
Y-33750D01*
G01Y-32580D02*
X25000D01*
Y-31540D01*
X25150Y-31210D01*
X25350Y-31000D01*
X25750Y-30920D01*
X26150Y-31000D01*
X26400Y-31250D01*
X26550Y-31540D01*
Y-32580D01*
G01Y-31540D02*
X28000Y-30920D01*
G01X27000Y-29790D02*
Y-28710D01*
G01X28000Y-27580D02*
X25000D01*
Y-26580D01*
X25150Y-26250D01*
X25500Y-26000D01*
X25900Y-25920D01*
X26300Y-26000D01*
X26600Y-26210D01*
X26750Y-26580D01*
Y-27580D01*
G01X28000Y-25130D02*
X25000D01*
G01Y-23370D02*
X28000D01*
G01X26500D02*
Y-25130D01*
G01X28000Y-21750D02*
X27950Y-22080D01*
X27750Y-22370D01*
X27450Y-22630D01*
X27100Y-22790D01*
X26700Y-22880D01*
X26300D01*
X25900Y-22790D01*
X25550Y-22630D01*
X25250Y-22370D01*
X25050Y-22080D01*
X25000Y-21750D01*
X25050Y-21420D01*
X25250Y-21130D01*
X25550Y-20870D01*
X25900Y-20710D01*
X26300Y-20620D01*
X26700D01*
X27100Y-20710D01*
X27450Y-20870D01*
X27750Y-21130D01*
X27950Y-21420D01*
X28000Y-21750D01*
G01X25000Y-19250D02*
X28000D01*
G01X25000Y-20210D02*
Y-18290D01*
G01X28000Y-16750D02*
X27950Y-17080D01*
X27750Y-17370D01*
X27450Y-17630D01*
X27100Y-17790D01*
X26700Y-17880D01*
X26300D01*
X25900Y-17790D01*
X25550Y-17630D01*
X25250Y-17370D01*
X25050Y-17080D01*
X25000Y-16750D01*
X25050Y-16420D01*
X25250Y-16130D01*
X25550Y-15870D01*
X25900Y-15710D01*
X26300Y-15620D01*
X26700D01*
X27100Y-15710D01*
X27450Y-15870D01*
X27750Y-16130D01*
X27950Y-16420D01*
X28000Y-16750D01*
G01X27000Y-14790D02*
Y-13710D01*
G01X41500Y-35250D02*
Y-34250D01*
G01Y-34750D02*
X44500D01*
G01Y-35250D02*
Y-34250D01*
G01Y-33080D02*
X41500D01*
Y-32040D01*
X41650Y-31710D01*
X41850Y-31500D01*
X42250Y-31420D01*
X42650Y-31500D01*
X42900Y-31750D01*
X43050Y-32040D01*
Y-33080D01*
G01Y-32040D02*
X44500Y-31420D01*
G01X43500Y-30290D02*
Y-29210D01*
G01X44500Y-28080D02*
X41500D01*
Y-27080D01*
X41650Y-26750D01*
X42000Y-26500D01*
X42400Y-26420D01*
X42800Y-26500D01*
X43100Y-26710D01*
X43250Y-27080D01*
Y-28080D01*
G01X44500Y-25630D02*
X41500D01*
G01Y-23870D02*
X44500D01*
G01X43000D02*
Y-25630D01*
G01X44500Y-22250D02*
X44450Y-22580D01*
X44250Y-22870D01*
X43950Y-23130D01*
X43600Y-23290D01*
X43200Y-23380D01*
X42800D01*
X42400Y-23290D01*
X42050Y-23130D01*
X41750Y-22870D01*
X41550Y-22580D01*
X41500Y-22250D01*
X41550Y-21920D01*
X41750Y-21630D01*
X42050Y-21370D01*
X42400Y-21210D01*
X42800Y-21120D01*
X43200D01*
X43600Y-21210D01*
X43950Y-21370D01*
X44250Y-21630D01*
X44450Y-21920D01*
X44500Y-22250D01*
G01X41500Y-19750D02*
X44500D01*
G01X41500Y-20710D02*
Y-18790D01*
G01X44500Y-17250D02*
X44450Y-17580D01*
X44250Y-17870D01*
X43950Y-18130D01*
X43600Y-18290D01*
X43200Y-18380D01*
X42800D01*
X42400Y-18290D01*
X42050Y-18130D01*
X41750Y-17870D01*
X41550Y-17580D01*
X41500Y-17250D01*
X41550Y-16920D01*
X41750Y-16630D01*
X42050Y-16370D01*
X42400Y-16210D01*
X42800Y-16120D01*
X43200D01*
X43600Y-16210D01*
X43950Y-16370D01*
X44250Y-16630D01*
X44450Y-16920D01*
X44500Y-17250D01*
G01X43500Y-15210D02*
Y-14210D01*
G01X42850Y-14750D02*
X44150D01*
G01X26570Y1900D02*
Y4900D01*
X27610D01*
X27940Y4750D01*
X28150Y4550D01*
X28230Y4150D01*
X28150Y3750D01*
X27900Y3500D01*
X27610Y3350D01*
X26570D01*
G01X27610D02*
X28230Y1900D01*
G01X28980Y2350D02*
X29230Y2100D01*
X29520Y1950D01*
X29900Y1900D01*
X30280Y2000D01*
X30570Y2200D01*
X30780Y2550D01*
X30820Y2950D01*
X30730Y3350D01*
X30520Y3600D01*
X30230Y3800D01*
X29940Y3850D01*
X29650Y3800D01*
X29280Y3600D01*
X29400Y4900D01*
X30520D01*
G01X33750Y-5680D02*
Y-8680D01*
G01X32790Y-5680D02*
X34710D01*
G01X36170Y-8680D02*
X36250Y-8030D01*
X36380Y-7480D01*
X36540Y-6980D01*
X36750Y-6430D01*
X37080Y-5680D01*
X35420D01*
G01X39170Y41250D02*
X38920Y41400D01*
X38630Y41500D01*
X38290D01*
X37920Y41350D01*
X37630Y41100D01*
X37420Y40800D01*
X37250Y40300D01*
X37210Y39850D01*
X37290Y39400D01*
X37420Y39100D01*
X37670Y38800D01*
X37960Y38600D01*
X38250Y38500D01*
X38540D01*
X38830Y38600D01*
X39080Y38750D01*
X39290Y38950D01*
G01X40670Y38500D02*
X40750Y39150D01*
X40880Y39700D01*
X41040Y40200D01*
X41250Y40750D01*
X41580Y41500D01*
X39920D01*
G01X27190Y10850D02*
Y13850D01*
X28230D01*
X28560Y13700D01*
X28770Y13500D01*
X28850Y13100D01*
X28770Y12700D01*
X28520Y12450D01*
X28230Y12300D01*
X27190D01*
G01X28230D02*
X28850Y10850D01*
G01X31020D02*
Y13850D01*
X29480Y11700D01*
X31560D01*
G01X53150Y23890D02*
X52900Y23590D01*
X52610Y23440D01*
X52280Y23390D01*
X51860Y23490D01*
X51570Y23740D01*
X51480Y24040D01*
X51530Y24340D01*
X51690Y24590D01*
X52530Y25090D01*
X52900Y25440D01*
X53150Y25940D01*
X53240Y26390D01*
X51480D01*
G01X50780Y25940D02*
X50530Y26190D01*
X50240Y26340D01*
X49860Y26390D01*
X49480Y26290D01*
X49190Y26090D01*
X48980Y25740D01*
X48940Y25340D01*
X49030Y24940D01*
X49240Y24690D01*
X49530Y24490D01*
X49820Y24440D01*
X50110Y24490D01*
X50480Y24690D01*
X50360Y23390D01*
X49240D01*
G01X51190Y28610D02*
X50940Y28310D01*
X50650Y28160D01*
X50320Y28110D01*
X49900Y28210D01*
X49610Y28460D01*
X49520Y28760D01*
X49570Y29060D01*
X49730Y29310D01*
X50570Y29810D01*
X50940Y30160D01*
X51190Y30660D01*
X51280Y31110D01*
X49520D01*
G01X47400D02*
Y28110D01*
X48940Y30260D01*
X46860D01*
G01X50400Y58280D02*
Y55280D01*
X50900Y55880D01*
G01Y58280D02*
X49900D01*
G01X47980D02*
X47900Y57630D01*
X47770Y57080D01*
X47610Y56580D01*
X47400Y56030D01*
X47070Y55280D01*
X48730D01*
G01X51970Y61820D02*
Y58820D01*
X52470Y59420D01*
G01Y61820D02*
X51470D01*
G01X50260Y60570D02*
X49970Y60220D01*
X49720Y60020D01*
X49390Y59920D01*
X49090Y60020D01*
X48890Y60220D01*
X48720Y60520D01*
X48680Y60870D01*
X48720Y61170D01*
X48890Y61470D01*
X49140Y61720D01*
X49430Y61820D01*
X49760Y61720D01*
X50050Y61420D01*
X50220Y60970D01*
X50260Y60470D01*
X50180Y59820D01*
X50050Y59470D01*
X49850Y59120D01*
X49550Y58870D01*
X49260Y58820D01*
X48970Y58920D01*
X48760Y59170D01*
G01X39670Y75750D02*
X39420Y75900D01*
X39130Y76000D01*
X38790D01*
X38420Y75850D01*
X38130Y75600D01*
X37920Y75300D01*
X37750Y74800D01*
X37710Y74350D01*
X37790Y73900D01*
X37920Y73600D01*
X38170Y73300D01*
X38460Y73100D01*
X38750Y73000D01*
X39040D01*
X39330Y73100D01*
X39580Y73250D01*
X39790Y73450D01*
G01X41250Y73000D02*
X41540Y73050D01*
X41870Y73200D01*
X42080Y73450D01*
X42170Y73800D01*
X42080Y74150D01*
X41830Y74450D01*
X41460Y74600D01*
X41040D01*
X40790Y74700D01*
X40580Y74950D01*
X40500Y75300D01*
X40630Y75650D01*
X40920Y75900D01*
X41250Y76000D01*
X41580Y75900D01*
X41870Y75650D01*
X42000Y75300D01*
X41920Y74950D01*
X41710Y74700D01*
X41460Y74600D01*
X41040D01*
X40670Y74450D01*
X40420Y74150D01*
X40330Y73800D01*
X40420Y73450D01*
X40630Y73200D01*
X40960Y73050D01*
X41250Y73000D01*
G01X65000Y-27750D02*
X68000D01*
G01X65000Y-28710D02*
Y-26790D01*
G01X68000Y-26130D02*
X65000Y-24370D01*
G01Y-26130D02*
X68000Y-24370D01*
G01X64600Y-5710D02*
Y-8710D01*
G01X63640Y-5710D02*
X65560D01*
G01X67600Y-8710D02*
Y-5710D01*
X66060Y-7860D01*
X68140D01*
G01X50250Y-6160D02*
Y-9160D01*
G01X49290Y-6160D02*
X51210D01*
G01X51960Y-7910D02*
X52250Y-7560D01*
X52500Y-7360D01*
X52830Y-7260D01*
X53130Y-7360D01*
X53330Y-7560D01*
X53500Y-7860D01*
X53540Y-8210D01*
X53500Y-8510D01*
X53330Y-8810D01*
X53080Y-9060D01*
X52790Y-9160D01*
X52460Y-9060D01*
X52170Y-8760D01*
X52000Y-8310D01*
X51960Y-7810D01*
X52040Y-7160D01*
X52170Y-6810D01*
X52370Y-6460D01*
X52670Y-6210D01*
X52960Y-6160D01*
X53250Y-6260D01*
X53460Y-6510D01*
G01X58000Y19420D02*
X55000D01*
Y20460D01*
X55150Y20790D01*
X55350Y21000D01*
X55750Y21080D01*
X56150Y21000D01*
X56400Y20750D01*
X56550Y20460D01*
Y19420D01*
G01Y20460D02*
X58000Y21080D01*
G01X55500Y21960D02*
X55200Y22210D01*
X55050Y22500D01*
X55000Y22830D01*
X55100Y23250D01*
X55350Y23540D01*
X55650Y23630D01*
X55950Y23580D01*
X56200Y23420D01*
X56700Y22580D01*
X57050Y22210D01*
X57550Y21960D01*
X58000Y21870D01*
Y23630D01*
G01X68150Y19820D02*
X65150D01*
Y20860D01*
X65300Y21190D01*
X65500Y21400D01*
X65900Y21480D01*
X66300Y21400D01*
X66550Y21150D01*
X66700Y20860D01*
Y19820D01*
G01Y20860D02*
X68150Y21480D01*
G01X67550Y22230D02*
X67900Y22480D01*
X68100Y22820D01*
X68150Y23190D01*
X68100Y23530D01*
X67850Y23860D01*
X67550Y24070D01*
X67250Y24110D01*
X66900Y24030D01*
X66650Y23730D01*
X66550Y23440D01*
Y23070D01*
G01Y23440D02*
X66400Y23690D01*
X66150Y23900D01*
X65850Y23980D01*
X65550Y23900D01*
X65300Y23690D01*
X65150Y23320D01*
X65200Y22940D01*
X65400Y22570D01*
G01X54400Y30720D02*
X53220D01*
Y32300D01*
G01X66430Y68400D02*
Y66250D01*
X66600Y65800D01*
X66930Y65500D01*
X67350Y65400D01*
X67770Y65500D01*
X68100Y65800D01*
X68270Y66250D01*
Y68400D01*
G01X69850Y65400D02*
Y68400D01*
X69350Y67800D01*
G01Y65400D02*
X70350D01*
G01X53220Y56700D02*
Y58280D01*
X54800D01*
G01X61750Y87670D02*
X61600Y87420D01*
X61500Y87130D01*
Y86790D01*
X61650Y86420D01*
X61900Y86130D01*
X62200Y85920D01*
X62700Y85750D01*
X63150Y85710D01*
X63600Y85790D01*
X63900Y85920D01*
X64200Y86170D01*
X64400Y86460D01*
X64500Y86750D01*
Y87040D01*
X64400Y87330D01*
X64250Y87580D01*
X64050Y87790D01*
G01Y88330D02*
X64300Y88580D01*
X64450Y88870D01*
X64500Y89250D01*
X64400Y89630D01*
X64200Y89920D01*
X63850Y90130D01*
X63450Y90170D01*
X63050Y90080D01*
X62800Y89870D01*
X62600Y89580D01*
X62550Y89290D01*
X62600Y89000D01*
X62800Y88630D01*
X61500Y88750D01*
Y89870D01*
G01X70960Y83980D02*
X72720Y86980D01*
G01X70960D02*
X72720Y83980D01*
G01X73550Y86480D02*
X73800Y86780D01*
X74090Y86930D01*
X74420Y86980D01*
X74840Y86880D01*
X75130Y86630D01*
X75220Y86330D01*
X75170Y86030D01*
X75010Y85780D01*
X74170Y85280D01*
X73800Y84930D01*
X73550Y84430D01*
X73460Y83980D01*
X75220D01*
G01X98500Y-30170D02*
X95500D01*
Y-29330D01*
X95650Y-29000D01*
X95850Y-28750D01*
X96150Y-28540D01*
X96500Y-28370D01*
X97000Y-28330D01*
X97500Y-28370D01*
X97850Y-28540D01*
X98150Y-28750D01*
X98350Y-29000D01*
X98500Y-29330D01*
Y-30170D01*
G01X95500Y-26750D02*
X98500D01*
G01X95500Y-27710D02*
Y-25790D01*
G01X98500Y-25080D02*
X95500D01*
Y-24040D01*
X95650Y-23710D01*
X95850Y-23500D01*
X96250Y-23420D01*
X96650Y-23500D01*
X96900Y-23750D01*
X97050Y-24040D01*
Y-25080D01*
G01Y-24040D02*
X98500Y-23420D01*
G01X83500Y-28580D02*
X80500D01*
Y-27540D01*
X80650Y-27210D01*
X80850Y-27000D01*
X81250Y-26920D01*
X81650Y-27000D01*
X81900Y-27250D01*
X82050Y-27540D01*
Y-28580D01*
G01Y-27540D02*
X83500Y-26920D01*
G01Y-26130D02*
X80500Y-24370D01*
G01Y-26130D02*
X83500Y-24370D01*
G01X80100Y-5710D02*
Y-8710D01*
G01X79140Y-5710D02*
X81060D01*
G01X81680Y-8110D02*
X81930Y-8460D01*
X82270Y-8660D01*
X82640Y-8710D01*
X82980Y-8660D01*
X83310Y-8410D01*
X83520Y-8110D01*
X83560Y-7810D01*
X83480Y-7460D01*
X83180Y-7210D01*
X82890Y-7110D01*
X82520D01*
G01X82890D02*
X83140Y-6960D01*
X83350Y-6710D01*
X83430Y-6410D01*
X83350Y-6110D01*
X83140Y-5860D01*
X82770Y-5710D01*
X82390Y-5760D01*
X82020Y-5960D01*
G01X95600Y-5710D02*
Y-8710D01*
G01X94640Y-5710D02*
X96560D01*
G01X97180Y-8260D02*
X97430Y-8510D01*
X97720Y-8660D01*
X98100Y-8710D01*
X98480Y-8610D01*
X98770Y-8410D01*
X98980Y-8060D01*
X99020Y-7660D01*
X98930Y-7260D01*
X98720Y-7010D01*
X98430Y-6810D01*
X98140Y-6760D01*
X97850Y-6810D01*
X97480Y-7010D01*
X97600Y-5710D01*
X98720D01*
G01X95250Y21670D02*
X95100Y21420D01*
X95000Y21130D01*
Y20790D01*
X95150Y20420D01*
X95400Y20130D01*
X95700Y19920D01*
X96200Y19750D01*
X96650Y19710D01*
X97100Y19790D01*
X97400Y19920D01*
X97700Y20170D01*
X97900Y20460D01*
X98000Y20750D01*
Y21040D01*
X97900Y21330D01*
X97750Y21580D01*
X97550Y21790D01*
G01X97650Y22540D02*
X97900Y22830D01*
X98000Y23170D01*
X97900Y23500D01*
X97600Y23790D01*
X97150Y24000D01*
X96700Y24080D01*
X96150D01*
X95700Y24000D01*
X95300Y23790D01*
X95100Y23540D01*
X95000Y23250D01*
X95100Y22920D01*
X95300Y22670D01*
X95600Y22500D01*
X96000Y22420D01*
X96350Y22500D01*
X96700Y22710D01*
X96900Y22960D01*
X96950Y23250D01*
X96850Y23580D01*
X96600Y23830D01*
X96150Y24080D01*
G01X78550Y21970D02*
X78400Y21720D01*
X78300Y21430D01*
Y21090D01*
X78450Y20720D01*
X78700Y20430D01*
X79000Y20220D01*
X79500Y20050D01*
X79950Y20010D01*
X80400Y20090D01*
X80700Y20220D01*
X81000Y20470D01*
X81200Y20760D01*
X81300Y21050D01*
Y21340D01*
X81200Y21630D01*
X81050Y21880D01*
X80850Y22090D01*
G01X80050Y22760D02*
X79700Y23050D01*
X79500Y23300D01*
X79400Y23630D01*
X79500Y23930D01*
X79700Y24130D01*
X80000Y24300D01*
X80350Y24340D01*
X80650Y24300D01*
X80950Y24130D01*
X81200Y23880D01*
X81300Y23590D01*
X81200Y23260D01*
X80900Y22970D01*
X80450Y22800D01*
X79950Y22760D01*
X79300Y22840D01*
X78950Y22970D01*
X78600Y23170D01*
X78350Y23470D01*
X78300Y23760D01*
X78400Y24050D01*
X78650Y24260D01*
G01X88650Y20320D02*
X85650D01*
Y21360D01*
X85800Y21690D01*
X86000Y21900D01*
X86400Y21980D01*
X86800Y21900D01*
X87050Y21650D01*
X87200Y21360D01*
Y20320D01*
G01Y21360D02*
X88650Y21980D01*
G01Y23650D02*
X85650D01*
X86250Y23150D01*
G01X88650D02*
Y24150D01*
G01X86130Y28080D02*
X85880Y28430D01*
X85540Y28630D01*
X85170Y28680D01*
X84830Y28630D01*
X84500Y28380D01*
X84290Y28080D01*
X84250Y27780D01*
X84330Y27430D01*
X84630Y27180D01*
X84920Y27080D01*
X85290D01*
G01X84920D02*
X84670Y26930D01*
X84460Y26680D01*
X84380Y26380D01*
X84460Y26080D01*
X84670Y25830D01*
X85040Y25680D01*
X85420Y25730D01*
X85790Y25930D01*
G01X83500Y26180D02*
X83250Y25880D01*
X82960Y25730D01*
X82630Y25680D01*
X82210Y25780D01*
X81920Y26030D01*
X81830Y26330D01*
X81880Y26630D01*
X82040Y26880D01*
X82880Y27380D01*
X83250Y27730D01*
X83500Y28230D01*
X83590Y28680D01*
X81830D01*
G01X79600Y30330D02*
X81170Y31900D01*
G01X81420Y61470D02*
X81130Y61720D01*
X80790Y61820D01*
X80460Y61720D01*
X80170Y61420D01*
X79960Y60970D01*
X79880Y60520D01*
Y59970D01*
X79960Y59520D01*
X80170Y59120D01*
X80420Y58920D01*
X80710Y58820D01*
X81040Y58920D01*
X81290Y59120D01*
X81460Y59420D01*
X81540Y59820D01*
X81460Y60170D01*
X81250Y60520D01*
X81000Y60720D01*
X80710Y60770D01*
X80380Y60670D01*
X80130Y60420D01*
X79880Y59970D01*
G01X82680Y58280D02*
X82390Y58230D01*
X82060Y58080D01*
X81850Y57830D01*
X81760Y57480D01*
X81850Y57130D01*
X82100Y56830D01*
X82470Y56680D01*
X82890D01*
X83140Y56580D01*
X83350Y56330D01*
X83430Y55980D01*
X83300Y55630D01*
X83010Y55380D01*
X82680Y55280D01*
X82350Y55380D01*
X82060Y55630D01*
X81930Y55980D01*
X82010Y56330D01*
X82220Y56580D01*
X82470Y56680D01*
X82890D01*
X83260Y56830D01*
X83510Y57130D01*
X83600Y57480D01*
X83510Y57830D01*
X83300Y58080D01*
X82970Y58230D01*
X82680Y58280D01*
G01X80780Y56700D02*
Y58280D01*
X79200D01*
G01X82250Y86670D02*
X82100Y86420D01*
X82000Y86130D01*
Y85790D01*
X82150Y85420D01*
X82400Y85130D01*
X82700Y84920D01*
X83200Y84750D01*
X83650Y84710D01*
X84100Y84790D01*
X84400Y84920D01*
X84700Y85170D01*
X84900Y85460D01*
X85000Y85750D01*
Y86040D01*
X84900Y86330D01*
X84750Y86580D01*
X84550Y86790D01*
G01X85000Y88750D02*
X82000D01*
X84150Y87210D01*
Y89290D01*
G01X101420Y75500D02*
Y78500D01*
X102460D01*
X102790Y78350D01*
X103000Y78150D01*
X103080Y77750D01*
X103000Y77350D01*
X102750Y77100D01*
X102460Y76950D01*
X101420D01*
G01X102460D02*
X103080Y75500D01*
G01X103960Y76750D02*
X104250Y77100D01*
X104500Y77300D01*
X104830Y77400D01*
X105130Y77300D01*
X105330Y77100D01*
X105500Y76800D01*
X105540Y76450D01*
X105500Y76150D01*
X105330Y75850D01*
X105080Y75600D01*
X104790Y75500D01*
X104460Y75600D01*
X104170Y75900D01*
X104000Y76350D01*
X103960Y76850D01*
X104040Y77500D01*
X104170Y77850D01*
X104370Y78200D01*
X104670Y78450D01*
X104960Y78500D01*
X105250Y78400D01*
X105460Y78150D01*
G01X128500Y-28500D02*
Y-27670D01*
X129400D01*
X129700Y-27920D01*
X129900Y-28210D01*
X130000Y-28620D01*
X129900Y-29040D01*
X129700Y-29330D01*
X129400Y-29580D01*
X129050Y-29750D01*
X128650Y-29830D01*
X128300D01*
X128000Y-29750D01*
X127650Y-29580D01*
X127350Y-29330D01*
X127150Y-29080D01*
X127000Y-28750D01*
Y-28460D01*
X127100Y-28130D01*
X127300Y-27870D01*
G01X130000Y-27210D02*
X127000D01*
X130000Y-25290D01*
X127000D01*
G01X130000Y-24670D02*
X127000D01*
Y-23830D01*
X127150Y-23500D01*
X127350Y-23250D01*
X127650Y-23040D01*
X128000Y-22870D01*
X128500Y-22830D01*
X129000Y-22870D01*
X129350Y-23040D01*
X129650Y-23250D01*
X129850Y-23500D01*
X130000Y-23830D01*
Y-24670D01*
G01X121500Y-35830D02*
X118500D01*
X121000Y-34750D01*
X118500Y-33670D01*
X121500D01*
G01Y-31420D02*
Y-33080D01*
X118500D01*
Y-31420D01*
G01X119950Y-32080D02*
Y-33080D01*
G01X118750Y-28830D02*
X118600Y-29080D01*
X118500Y-29370D01*
Y-29710D01*
X118650Y-30080D01*
X118900Y-30370D01*
X119200Y-30580D01*
X119700Y-30750D01*
X120150Y-30790D01*
X120600Y-30710D01*
X120900Y-30580D01*
X121200Y-30330D01*
X121400Y-30040D01*
X121500Y-29750D01*
Y-29460D01*
X121400Y-29170D01*
X121250Y-28920D01*
X121050Y-28710D01*
G01X121500Y-28130D02*
X118500D01*
G01Y-26370D02*
X121500D01*
G01X120000D02*
Y-28130D01*
G01X120500Y-25290D02*
Y-24210D01*
G01X121500Y-23080D02*
X118500D01*
Y-22040D01*
X118650Y-21710D01*
X118850Y-21500D01*
X119250Y-21420D01*
X119650Y-21500D01*
X119900Y-21750D01*
X120050Y-22040D01*
Y-23080D01*
G01Y-22040D02*
X121500Y-21420D01*
G01X120150Y-20370D02*
Y-19040D01*
X119800Y-19170D01*
X119600Y-19370D01*
X119500Y-19670D01*
X119550Y-19960D01*
X119700Y-20210D01*
X120050Y-20370D01*
X120350Y-20460D01*
X120650D01*
X120950Y-20370D01*
X121250Y-20170D01*
X121450Y-19920D01*
X121500Y-19620D01*
X121400Y-19330D01*
X121100Y-19040D01*
G01X121150Y-17870D02*
X121350Y-17670D01*
X121500Y-17380D01*
Y-17120D01*
X121400Y-16870D01*
X121250Y-16710D01*
X121050Y-16630D01*
X120750Y-16670D01*
X120600Y-16830D01*
X120300Y-17580D01*
X119950Y-17750D01*
X119700Y-17670D01*
X119550Y-17500D01*
X119500Y-17250D01*
X119550Y-17000D01*
X119700Y-16750D01*
G01X120150Y-15370D02*
Y-14040D01*
X119800Y-14170D01*
X119600Y-14370D01*
X119500Y-14670D01*
X119550Y-14960D01*
X119700Y-15210D01*
X120050Y-15370D01*
X120350Y-15460D01*
X120650D01*
X120950Y-15370D01*
X121250Y-15170D01*
X121450Y-14920D01*
X121500Y-14620D01*
X121400Y-14330D01*
X121100Y-14040D01*
G01X118500Y-12250D02*
X121500D01*
G01X119500Y-12830D02*
Y-11670D01*
G01X126600Y-5710D02*
Y-8710D01*
G01X125640Y-5710D02*
X127560D01*
G01X128310Y-6210D02*
X128560Y-5910D01*
X128850Y-5760D01*
X129180Y-5710D01*
X129600Y-5810D01*
X129890Y-6060D01*
X129980Y-6360D01*
X129930Y-6660D01*
X129770Y-6910D01*
X128930Y-7410D01*
X128560Y-7760D01*
X128310Y-8260D01*
X128220Y-8710D01*
X129980D01*
G01X111750Y-6340D02*
Y-9340D01*
G01X110790Y-6340D02*
X112710D01*
G01X114250Y-9340D02*
Y-6340D01*
X113750Y-6940D01*
G01Y-9340D02*
X114750D01*
G01X110020Y25020D02*
Y39590D01*
X124980D01*
Y25020D01*
X110020D01*
G01X116180Y22380D02*
Y20230D01*
X116350Y19780D01*
X116680Y19480D01*
X117100Y19380D01*
X117520Y19480D01*
X117850Y19780D01*
X118020Y20230D01*
Y22380D01*
G01X118810Y21880D02*
X119060Y22180D01*
X119350Y22330D01*
X119680Y22380D01*
X120100Y22280D01*
X120390Y22030D01*
X120480Y21730D01*
X120430Y21430D01*
X120270Y21180D01*
X119430Y20680D01*
X119060Y20330D01*
X118810Y19830D01*
X118720Y19380D01*
X120480D01*
G01X115920Y41000D02*
Y44000D01*
X116960D01*
X117290Y43850D01*
X117500Y43650D01*
X117580Y43250D01*
X117500Y42850D01*
X117250Y42600D01*
X116960Y42450D01*
X115920D01*
G01X116960D02*
X117580Y41000D01*
G01X119170D02*
X119250Y41650D01*
X119380Y42200D01*
X119540Y42700D01*
X119750Y43250D01*
X120080Y44000D01*
X118420D01*
G01X116470Y61950D02*
X116220Y62100D01*
X115930Y62200D01*
X115590D01*
X115220Y62050D01*
X114930Y61800D01*
X114720Y61500D01*
X114550Y61000D01*
X114510Y60550D01*
X114590Y60100D01*
X114720Y59800D01*
X114970Y59500D01*
X115260Y59300D01*
X115550Y59200D01*
X115840D01*
X116130Y59300D01*
X116380Y59450D01*
X116590Y59650D01*
G01X117260Y61700D02*
X117510Y62000D01*
X117800Y62150D01*
X118130Y62200D01*
X118550Y62100D01*
X118840Y61850D01*
X118930Y61550D01*
X118880Y61250D01*
X118720Y61000D01*
X117880Y60500D01*
X117510Y60150D01*
X117260Y59650D01*
X117170Y59200D01*
X118930D01*
G01X116670Y48250D02*
X116420Y48400D01*
X116130Y48500D01*
X115790D01*
X115420Y48350D01*
X115130Y48100D01*
X114920Y47800D01*
X114750Y47300D01*
X114710Y46850D01*
X114790Y46400D01*
X114920Y46100D01*
X115170Y45800D01*
X115460Y45600D01*
X115750Y45500D01*
X116040D01*
X116330Y45600D01*
X116580Y45750D01*
X116790Y45950D01*
G01X117330Y46100D02*
X117580Y45750D01*
X117920Y45550D01*
X118290Y45500D01*
X118630Y45550D01*
X118960Y45800D01*
X119170Y46100D01*
X119210Y46400D01*
X119130Y46750D01*
X118830Y47000D01*
X118540Y47100D01*
X118170D01*
G01X118540D02*
X118790Y47250D01*
X119000Y47500D01*
X119080Y47800D01*
X119000Y48100D01*
X118790Y48350D01*
X118420Y48500D01*
X118040Y48450D01*
X117670Y48250D01*
G01X116670Y54750D02*
X116420Y54900D01*
X116130Y55000D01*
X115790D01*
X115420Y54850D01*
X115130Y54600D01*
X114920Y54300D01*
X114750Y53800D01*
X114710Y53350D01*
X114790Y52900D01*
X114920Y52600D01*
X115170Y52300D01*
X115460Y52100D01*
X115750Y52000D01*
X116040D01*
X116330Y52100D01*
X116580Y52250D01*
X116790Y52450D01*
G01X118250Y52000D02*
Y55000D01*
X117750Y54400D01*
G01Y52000D02*
X118750D01*
G01X129330Y69500D02*
G03I-5909J0D01*
G01X121330Y77000D02*
Y80000D01*
X122170D01*
X122500Y79850D01*
X122750Y79650D01*
X122960Y79350D01*
X123130Y79000D01*
X123170Y78500D01*
X123130Y78000D01*
X122960Y77650D01*
X122750Y77350D01*
X122500Y77150D01*
X122170Y77000D01*
X121330D01*
G01X124750D02*
Y80000D01*
X124250Y79400D01*
G01Y77000D02*
X125250D01*
G01X124410Y69500D02*
X122440Y70480D01*
Y68520D01*
X124410Y69500D01*
G01Y70480D02*
Y68520D01*
G01X125390Y69500D02*
X121450D01*
G01X140250Y30670D02*
X140100Y30420D01*
X140000Y30130D01*
Y29790D01*
X140150Y29420D01*
X140400Y29130D01*
X140700Y28920D01*
X141200Y28750D01*
X141650Y28710D01*
X142100Y28790D01*
X142400Y28920D01*
X142700Y29170D01*
X142900Y29460D01*
X143000Y29750D01*
Y30040D01*
X142900Y30330D01*
X142750Y30580D01*
X142550Y30790D01*
G01X143000Y32250D02*
X140000D01*
X140600Y31750D01*
G01X143000D02*
Y32750D01*
G01Y34750D02*
X140000D01*
X140600Y34250D01*
G01X143000D02*
Y35250D01*
G01X147250Y30670D02*
X147100Y30420D01*
X147000Y30130D01*
Y29790D01*
X147150Y29420D01*
X147400Y29130D01*
X147700Y28920D01*
X148200Y28750D01*
X148650Y28710D01*
X149100Y28790D01*
X149400Y28920D01*
X149700Y29170D01*
X149900Y29460D01*
X150000Y29750D01*
Y30040D01*
X149900Y30330D01*
X149750Y30580D01*
X149550Y30790D01*
G01X150000Y32250D02*
X147000D01*
X147600Y31750D01*
G01X150000D02*
Y32750D01*
G01X147000Y34750D02*
X147100Y34420D01*
X147350Y34170D01*
X147650Y34000D01*
X148050Y33870D01*
X148500Y33830D01*
X148950Y33870D01*
X149350Y34000D01*
X149650Y34170D01*
X149900Y34420D01*
X150000Y34750D01*
X149900Y35080D01*
X149650Y35330D01*
X149350Y35500D01*
X148950Y35630D01*
X148500Y35670D01*
X148050Y35630D01*
X147650Y35500D01*
X147350Y35330D01*
X147100Y35080D01*
X147000Y34750D01*
G01X-181000Y-360000D02*
X658000D01*
Y226000D01*
X-181000D01*
Y-360000D01*
G01X80780Y58280D02*
X53220D01*
Y30720D01*
X80780D01*
Y58280D01*
G01X-181000Y-360000D02*
X658000D01*
Y226000D01*
X-181000D01*
Y-360000D01*
G54D11*
G01X32870Y8550D02*
X51270D01*
Y17350D01*
X32870D01*
Y8550D01*
G01X32750Y-1900D02*
X51150D01*
Y6900D01*
X32750D01*
Y-1900D01*
G01X37200Y55800D02*
Y44200D01*
G03X42900Y44400I2781J2060D01*
G01Y55700D01*
G03X37200I-2850J-1957D01*
G01Y70800D02*
Y59200D01*
G03X42900Y59400I2781J2060D01*
G01Y70700D01*
G03X37200I-2850J-1957D01*
G01X82300Y3200D02*
Y14800D01*
G03X76600Y14600I-2781J-2060D01*
G01Y3300D01*
G03X82300I2850J1957D01*
G01X61400Y-1250D02*
Y17150D01*
X52600D01*
Y-1250D01*
X61400D01*
G01X70900D02*
Y17150D01*
X62100D01*
Y-1250D01*
X70900D01*
G01X60700Y82800D02*
Y71200D01*
G03X66400Y71400I2781J2060D01*
G01Y82700D01*
G03X60700I-2850J-1957D01*
G01X93700Y14800D02*
Y3200D01*
G03X99400Y3400I2781J2060D01*
G01Y14700D01*
G03X93700I-2850J-1957D01*
G01X91900Y-1250D02*
Y17150D01*
X83100D01*
Y-1250D01*
X91900D01*
G01X109300Y63300D02*
X97700D01*
G03X97900Y57600I2060J-2781D01*
G01X109200D01*
G03Y63300I-1957J2850D01*
G01X109300Y49800D02*
X97700D01*
G03X97900Y44100I2060J-2781D01*
G01X109200D01*
G03Y49800I-1957J2850D01*
G01X109300Y56510D02*
X97700D01*
G03X97900Y50810I2060J-2781D01*
G01X109200D01*
G03Y56510I-1957J2850D01*
G01X112710Y73900D02*
X94310D01*
Y65100D01*
X112710D01*
Y73900D01*
G01X86300Y70740D02*
Y82340D01*
G03X80600Y82140I-2781J-2060D01*
G01Y70840D01*
G03X86300I2850J1957D01*
G01X126370Y-340D02*
X110630D01*
Y19340D01*
X114720D01*
G03X122200I3740J2432D01*
G01X126370D01*
Y-340D01*
G01X138200Y23800D02*
Y12200D01*
G03X143900Y12400I2781J2060D01*
G01Y23700D01*
G03X138200I-2850J-1957D01*
G01X145700Y23800D02*
Y12200D01*
G03X151400Y12400I2781J2060D01*
G01Y23700D01*
G03X145700I-2850J-1957D01*
G54D12*
G01X78630Y83240D02*
Y70640D01*
X68790D01*
Y83240D01*
X78630D01*
G54D13*
G01X459800Y-187400D02*
X501000D01*
Y-317800D01*
X-148800D01*
Y-187400D01*
X463000D01*
G01X-3700Y-71700D02*
G03I-25500J0D01*
G01X-14980Y-71500D02*
G03I-14420J0D01*
G01X-59600Y-71700D02*
X700D01*
G01X-29200Y-39600D02*
Y-106200D01*
G01X5470Y-286500D02*
Y-276500D01*
G01X10030D02*
Y-286500D01*
G01Y-281500D02*
X5470D01*
G01X19200Y-286500D02*
Y-279830D01*
G01Y-281000D02*
X18770Y-280330D01*
X18120Y-280000D01*
X17360Y-279830D01*
X16600Y-280170D01*
X15950Y-280830D01*
X15520Y-281830D01*
X15300Y-283170D01*
X15520Y-284500D01*
X15950Y-285500D01*
X16600Y-286170D01*
X17360Y-286500D01*
X18120Y-286330D01*
X18770Y-285830D01*
X19200Y-285170D01*
G01X24910Y-286500D02*
Y-279830D01*
G01Y-281500D02*
X25340Y-280670D01*
X25990Y-280000D01*
X26860Y-279830D01*
X27620Y-280000D01*
X28270Y-280670D01*
X28590Y-281830D01*
Y-286500D01*
G01X38200Y-276500D02*
Y-286500D01*
G01Y-285000D02*
X37770Y-285830D01*
X37120Y-286330D01*
X36360Y-286500D01*
X35490Y-286170D01*
X34840Y-285330D01*
X34410Y-284330D01*
X34300Y-283170D01*
X34410Y-282000D01*
X34840Y-281000D01*
X35490Y-280170D01*
X36360Y-279830D01*
X37120Y-280000D01*
X37660Y-280330D01*
X38200Y-281000D01*
G01X52970Y-285170D02*
X53840Y-286000D01*
X54820Y-286500D01*
X55680D01*
X56550Y-286000D01*
X57200Y-285170D01*
X57530Y-284000D01*
X57310Y-282830D01*
X56770Y-281830D01*
X55790Y-281170D01*
X54490Y-280830D01*
X53730Y-280170D01*
X53410Y-279000D01*
X53630Y-277830D01*
X54170Y-277000D01*
X54920Y-276500D01*
X55680D01*
X56440Y-276830D01*
X57090Y-277670D01*
G01X62040Y-286500D02*
X64750Y-276500D01*
X67460Y-286500D01*
G01X66480Y-283000D02*
X63020D01*
G01X71760Y-286500D02*
Y-276500D01*
X76740Y-286500D01*
Y-276500D01*
G01X82450D02*
X85050D01*
G01X83750D02*
Y-286500D01*
G01X82450D02*
X85050D01*
G01X93250Y-276500D02*
Y-286500D01*
G01X90760Y-276500D02*
X95740D01*
G01X101450D02*
X104050D01*
G01X102750D02*
Y-286500D01*
G01X101450D02*
X104050D01*
G01X109970Y-285170D02*
X110840Y-286000D01*
X111820Y-286500D01*
X112680D01*
X113550Y-286000D01*
X114200Y-285170D01*
X114530Y-284000D01*
X114310Y-282830D01*
X113770Y-281830D01*
X112790Y-281170D01*
X111490Y-280830D01*
X110730Y-280170D01*
X110410Y-279000D01*
X110630Y-277830D01*
X111170Y-277000D01*
X111920Y-276500D01*
X112680D01*
X113440Y-276830D01*
X114090Y-277670D01*
G01X123920Y-286500D02*
X119580D01*
Y-276500D01*
X123920D01*
G01X122180Y-281330D02*
X119580D01*
G01X129080Y-286500D02*
Y-276500D01*
X131790D01*
X132660Y-277000D01*
X133200Y-277670D01*
X133420Y-279000D01*
X133200Y-280330D01*
X132550Y-281170D01*
X131790Y-281670D01*
X129080D01*
G01X131790D02*
X133420Y-286500D01*
G01X40070Y-229900D02*
Y-219900D01*
X42230D01*
X43100Y-220400D01*
X43750Y-221070D01*
X44290Y-222070D01*
X44730Y-223230D01*
X44830Y-224900D01*
X44730Y-226570D01*
X44290Y-227730D01*
X43750Y-228730D01*
X43100Y-229400D01*
X42230Y-229900D01*
X40070D01*
G01X49780D02*
Y-219900D01*
X52490D01*
X53360Y-220400D01*
X53900Y-221070D01*
X54120Y-222400D01*
X53900Y-223730D01*
X53250Y-224570D01*
X52490Y-225070D01*
X49780D01*
G01X52490D02*
X54120Y-229900D01*
G01X58740D02*
X61450Y-219900D01*
X64160Y-229900D01*
G01X63180Y-226400D02*
X59720D01*
G01X67700Y-219900D02*
X69220Y-229900D01*
X70950Y-219900D01*
X72680Y-229900D01*
X74200Y-219900D01*
G01X79150D02*
X81750D01*
G01X80450D02*
Y-229900D01*
G01X79150D02*
X81750D01*
G01X87460D02*
Y-219900D01*
X92440Y-229900D01*
Y-219900D01*
G01X100100Y-224900D02*
X102270D01*
Y-227900D01*
X101620Y-228900D01*
X100860Y-229570D01*
X99780Y-229900D01*
X98690Y-229570D01*
X97930Y-228900D01*
X97280Y-227900D01*
X96850Y-226730D01*
X96630Y-225400D01*
Y-224230D01*
X96850Y-223230D01*
X97280Y-222070D01*
X97930Y-221070D01*
X98580Y-220400D01*
X99450Y-219900D01*
X100210D01*
X101070Y-220230D01*
X101730Y-220900D01*
G01X168090Y-278070D02*
X168740Y-277070D01*
X169500Y-276570D01*
X170370Y-276400D01*
X171450Y-276730D01*
X172210Y-277570D01*
X172430Y-278570D01*
X172320Y-279570D01*
X171880Y-280400D01*
X169720Y-282070D01*
X168740Y-283230D01*
X168090Y-284900D01*
X167870Y-286400D01*
X172430D01*
G01X179650Y-276400D02*
X178780Y-276730D01*
X178130Y-277570D01*
X177700Y-278570D01*
X177370Y-279900D01*
X177270Y-281400D01*
X177370Y-282900D01*
X177700Y-284230D01*
X178130Y-285230D01*
X178780Y-286070D01*
X179650Y-286400D01*
X180520Y-286070D01*
X181170Y-285230D01*
X181600Y-284230D01*
X181930Y-282900D01*
X182030Y-281400D01*
X181930Y-279900D01*
X181600Y-278570D01*
X181170Y-277570D01*
X180520Y-276730D01*
X179650Y-276400D01*
G01X187090Y-278070D02*
X187740Y-277070D01*
X188500Y-276570D01*
X189370Y-276400D01*
X190450Y-276730D01*
X191210Y-277570D01*
X191430Y-278570D01*
X191320Y-279570D01*
X190880Y-280400D01*
X188720Y-282070D01*
X187740Y-283230D01*
X187090Y-284900D01*
X186870Y-286400D01*
X191430D01*
G01X198650D02*
Y-276400D01*
X197350Y-278400D01*
G01Y-286400D02*
X199950D01*
G01X208150Y-276400D02*
X207280Y-276730D01*
X206630Y-277570D01*
X206200Y-278570D01*
X205870Y-279900D01*
X205770Y-281400D01*
X205870Y-282900D01*
X206200Y-284230D01*
X206630Y-285230D01*
X207280Y-286070D01*
X208150Y-286400D01*
X209020Y-286070D01*
X209670Y-285230D01*
X210100Y-284230D01*
X210430Y-282900D01*
X210530Y-281400D01*
X210430Y-279900D01*
X210100Y-278570D01*
X209670Y-277570D01*
X209020Y-276730D01*
X208150Y-276400D01*
G01X215270Y-284900D02*
X215920Y-285730D01*
X216670Y-286230D01*
X217650Y-286400D01*
X218630Y-286070D01*
X219380Y-285400D01*
X219930Y-284230D01*
X220030Y-282900D01*
X219820Y-281570D01*
X219270Y-280730D01*
X218520Y-280070D01*
X217760Y-279900D01*
X217000Y-280070D01*
X216030Y-280730D01*
X216350Y-276400D01*
X219270D01*
G01X227150Y-286400D02*
Y-276400D01*
X225850Y-278400D01*
G01Y-286400D02*
X228450D01*
G01X237950D02*
Y-276400D01*
X233940Y-283570D01*
X239360D01*
G01X185870Y-228900D02*
Y-218900D01*
X188030D01*
X188900Y-219400D01*
X189550Y-220070D01*
X190090Y-221070D01*
X190530Y-222230D01*
X190630Y-223900D01*
X190530Y-225570D01*
X190090Y-226730D01*
X189550Y-227730D01*
X188900Y-228400D01*
X188030Y-228900D01*
X185870D01*
G01X195040D02*
X197750Y-218900D01*
X200460Y-228900D01*
G01X199480Y-225400D02*
X196020D01*
G01X207250Y-218900D02*
Y-228900D01*
G01X204760Y-218900D02*
X209740D01*
G01X218920Y-228900D02*
X214580D01*
Y-218900D01*
X218920D01*
G01X217180Y-223730D02*
X214580D01*
G01X222800Y134800D02*
G03I-25500J0D01*
G01X211520Y135000D02*
G03I-14420J0D01*
G01X166900Y134800D02*
X227200D01*
G01X197300Y166900D02*
Y100300D01*
G01X256750Y-152500D02*
Y-142500D01*
X255450Y-144500D01*
G01Y-152500D02*
X258050D01*
G01X266250Y-152830D02*
X266030Y-152670D01*
Y-152330D01*
X266250Y-152170D01*
X266470Y-152330D01*
Y-152670D01*
X266250Y-152830D01*
G01X273690Y-148330D02*
X274450Y-147170D01*
X275100Y-146500D01*
X275970Y-146170D01*
X276730Y-146500D01*
X277270Y-147170D01*
X277700Y-148170D01*
X277810Y-149330D01*
X277700Y-150330D01*
X277270Y-151330D01*
X276620Y-152170D01*
X275860Y-152500D01*
X274990Y-152170D01*
X274230Y-151170D01*
X273800Y-149670D01*
X273690Y-148000D01*
X273910Y-145830D01*
X274230Y-144670D01*
X274770Y-143500D01*
X275530Y-142670D01*
X276290Y-142500D01*
X277050Y-142830D01*
X277590Y-143670D01*
G01X282000Y-152500D02*
Y-145830D01*
G01Y-147670D02*
X282320Y-146830D01*
X282870Y-146170D01*
X283630Y-145830D01*
X284380Y-146170D01*
X284920Y-146830D01*
X285250Y-147670D01*
Y-152500D01*
G01Y-147670D02*
X285580Y-146830D01*
X286120Y-146170D01*
X286870Y-145830D01*
X287630Y-146170D01*
X288180Y-146830D01*
X288500Y-147830D01*
Y-152500D01*
G01X291500D02*
Y-145830D01*
G01Y-147670D02*
X291820Y-146830D01*
X292370Y-146170D01*
X293130Y-145830D01*
X293880Y-146170D01*
X294420Y-146830D01*
X294750Y-147670D01*
Y-152500D01*
G01Y-147670D02*
X295080Y-146830D01*
X295620Y-146170D01*
X296370Y-145830D01*
X297130Y-146170D01*
X297680Y-146830D01*
X298000Y-147830D01*
Y-152500D01*
G01X281650Y-285400D02*
Y-275400D01*
X280350Y-277400D01*
G01Y-285400D02*
X282950D01*
G01X291150Y-285730D02*
X290930Y-285570D01*
Y-285230D01*
X291150Y-285070D01*
X291370Y-285230D01*
Y-285570D01*
X291150Y-285730D01*
G01Y-281230D02*
X290930Y-281070D01*
Y-280730D01*
X291150Y-280570D01*
X291370Y-280730D01*
Y-281070D01*
X291150Y-281230D01*
G01X300650Y-285400D02*
Y-275400D01*
X299350Y-277400D01*
G01Y-285400D02*
X301950D01*
G01X269270Y-227070D02*
X270140Y-227900D01*
X271120Y-228400D01*
X271980D01*
X272850Y-227900D01*
X273500Y-227070D01*
X273830Y-225900D01*
X273610Y-224730D01*
X273070Y-223730D01*
X272090Y-223070D01*
X270790Y-222730D01*
X270030Y-222070D01*
X269710Y-220900D01*
X269930Y-219730D01*
X270470Y-218900D01*
X271220Y-218400D01*
X271980D01*
X272740Y-218730D01*
X273390Y-219570D01*
G01X283430Y-219230D02*
X282780Y-218730D01*
X282030Y-218400D01*
X281160D01*
X280180Y-218900D01*
X279430Y-219730D01*
X278880Y-220730D01*
X278450Y-222400D01*
X278340Y-223900D01*
X278560Y-225400D01*
X278880Y-226400D01*
X279530Y-227400D01*
X280290Y-228070D01*
X281050Y-228400D01*
X281810D01*
X282570Y-228070D01*
X283220Y-227570D01*
X283760Y-226900D01*
G01X287840Y-228400D02*
X290550Y-218400D01*
X293260Y-228400D01*
G01X292280Y-224900D02*
X288820D01*
G01X297880Y-218400D02*
Y-228400D01*
X302220D01*
G01X311720D02*
X307380D01*
Y-218400D01*
X311720D01*
G01X309980Y-223230D02*
X307380D01*
G01X445700Y-142500D02*
X310500D01*
G01Y-155500D02*
X445700D01*
G01X300000Y-142000D02*
X307500D01*
Y-155500D01*
X300500D01*
G01X357470Y-286170D02*
X358340Y-287000D01*
X359320Y-287500D01*
X360180D01*
X361050Y-287000D01*
X361700Y-286170D01*
X362030Y-285000D01*
X361810Y-283830D01*
X361270Y-282830D01*
X360290Y-282170D01*
X358990Y-281830D01*
X358230Y-281170D01*
X357910Y-280000D01*
X358130Y-278830D01*
X358670Y-278000D01*
X359420Y-277500D01*
X360180D01*
X360940Y-277830D01*
X361590Y-278670D01*
G01X369250Y-280830D02*
Y-287500D01*
G01Y-278170D02*
X369030Y-278000D01*
Y-277670D01*
X369250Y-277500D01*
X369470Y-277670D01*
Y-278000D01*
X369250Y-278170D01*
G01X378750Y-287500D02*
Y-277500D01*
G01X386410Y-287500D02*
Y-277500D01*
G01X389870Y-280830D02*
X386410Y-284670D01*
G01X387820Y-283170D02*
X390090Y-287500D01*
G01X396130Y-286330D02*
X396670Y-287000D01*
X397420Y-287500D01*
X398080D01*
X398730Y-287170D01*
X399160Y-286670D01*
X399370Y-286000D01*
X399270Y-285000D01*
X398830Y-284500D01*
X396880Y-283500D01*
X396450Y-282330D01*
X396670Y-281500D01*
X397100Y-281000D01*
X397750Y-280830D01*
X398400Y-281000D01*
X399050Y-281500D01*
G01X408980Y-281670D02*
X408230Y-281000D01*
X407580Y-280830D01*
X406710Y-281170D01*
X406060Y-281830D01*
X405630Y-283000D01*
X405520Y-284170D01*
X405630Y-285330D01*
X406060Y-286330D01*
X406710Y-287170D01*
X407580Y-287500D01*
X408330Y-287170D01*
X408980Y-286500D01*
G01X415230Y-287500D02*
Y-280830D01*
G01Y-282170D02*
X415770Y-281500D01*
X416320Y-281000D01*
X417080Y-280830D01*
X417620Y-281000D01*
X418270Y-281500D01*
G01X424630Y-283000D02*
X428090D01*
X427770Y-281830D01*
X427230Y-281170D01*
X426470Y-280830D01*
X425710Y-281000D01*
X425060Y-281500D01*
X424630Y-282670D01*
X424410Y-283670D01*
Y-284670D01*
X424630Y-285670D01*
X425170Y-286670D01*
X425820Y-287330D01*
X426580Y-287500D01*
X427330Y-287170D01*
X428090Y-286170D01*
G01X434130Y-283000D02*
X437590D01*
X437270Y-281830D01*
X436730Y-281170D01*
X435970Y-280830D01*
X435210Y-281000D01*
X434560Y-281500D01*
X434130Y-282670D01*
X433910Y-283670D01*
Y-284670D01*
X434130Y-285670D01*
X434670Y-286670D01*
X435320Y-287330D01*
X436080Y-287500D01*
X436830Y-287170D01*
X437590Y-286170D01*
G01X443410Y-287500D02*
Y-280830D01*
G01Y-282500D02*
X443840Y-281670D01*
X444490Y-281000D01*
X445360Y-280830D01*
X446120Y-281000D01*
X446770Y-281670D01*
X447090Y-282830D01*
Y-287500D01*
G01X454750Y-277500D02*
Y-287500D01*
G01X453230Y-280830D02*
X456270D01*
G01X464250Y-287500D02*
X463600Y-287330D01*
X462950Y-286670D01*
X462520Y-285500D01*
X462300Y-284170D01*
X462520Y-282830D01*
X462950Y-281670D01*
X463600Y-281000D01*
X464250Y-280830D01*
X464900Y-281000D01*
X465550Y-281670D01*
X465980Y-282830D01*
X466090Y-284170D01*
X465980Y-285500D01*
X465550Y-286670D01*
X464900Y-287330D01*
X464250Y-287500D01*
G01X471800Y-290830D02*
Y-280830D01*
G01Y-282330D02*
X472340Y-281500D01*
X472880Y-281000D01*
X473750Y-280830D01*
X474510Y-281000D01*
X475270Y-281830D01*
X475590Y-283000D01*
X475700Y-284170D01*
X475590Y-285330D01*
X475270Y-286500D01*
X474620Y-287170D01*
X473750Y-287500D01*
X472990Y-287330D01*
X472230Y-286830D01*
X471800Y-286170D01*
G01X399670Y-227270D02*
X400540Y-228100D01*
X401520Y-228600D01*
X402380D01*
X403250Y-228100D01*
X403900Y-227270D01*
X404230Y-226100D01*
X404010Y-224930D01*
X403470Y-223930D01*
X402490Y-223270D01*
X401190Y-222930D01*
X400430Y-222270D01*
X400110Y-221100D01*
X400330Y-219930D01*
X400870Y-219100D01*
X401620Y-218600D01*
X402380D01*
X403140Y-218930D01*
X403790Y-219770D01*
G01X410150Y-218600D02*
X412750D01*
G01X411450D02*
Y-228600D01*
G01X410150D02*
X412750D01*
G01X418570D02*
Y-218600D01*
X420730D01*
X421600Y-219100D01*
X422250Y-219770D01*
X422790Y-220770D01*
X423230Y-221930D01*
X423330Y-223600D01*
X423230Y-225270D01*
X422790Y-226430D01*
X422250Y-227430D01*
X421600Y-228100D01*
X420730Y-228600D01*
X418570D01*
G01X432620D02*
X428280D01*
Y-218600D01*
X432620D01*
G01X430880Y-223430D02*
X428280D01*
G01X454850Y-136400D02*
Y-144400D01*
G01X452740Y-136400D02*
X456960D01*
G01X461850Y-144400D02*
X461120Y-144270D01*
X460480Y-143730D01*
X459920Y-142930D01*
X459560Y-142000D01*
X459370Y-140930D01*
Y-139870D01*
X459560Y-138800D01*
X459920Y-137870D01*
X460480Y-137070D01*
X461120Y-136530D01*
X461850Y-136400D01*
X462580Y-136530D01*
X463220Y-137070D01*
X463780Y-137870D01*
X464140Y-138800D01*
X464330Y-139870D01*
Y-140930D01*
X464140Y-142000D01*
X463780Y-142930D01*
X463220Y-143730D01*
X462580Y-144270D01*
X461850Y-144400D01*
G01X467020D02*
Y-136400D01*
X469220D01*
X469950Y-136800D01*
X470500Y-137730D01*
X470680Y-138800D01*
X470500Y-139870D01*
X470040Y-140670D01*
X469220Y-141070D01*
X467020D01*
G01X456980Y-153230D02*
X457350Y-152830D01*
X457620Y-152170D01*
X457810Y-151230D01*
X457620Y-150430D01*
X457260Y-149900D01*
X456620Y-149500D01*
X454140D01*
Y-157500D01*
X457170D01*
X457810Y-156970D01*
X458180Y-156170D01*
X458360Y-155230D01*
X458180Y-154300D01*
X457620Y-153500D01*
X456980Y-153230D01*
X454140D01*
G01X463250Y-157500D02*
X462520Y-157370D01*
X461880Y-156830D01*
X461320Y-156030D01*
X460960Y-155100D01*
X460770Y-154030D01*
Y-152970D01*
X460960Y-151900D01*
X461320Y-150970D01*
X461880Y-150170D01*
X462520Y-149630D01*
X463250Y-149500D01*
X463980Y-149630D01*
X464620Y-150170D01*
X465180Y-150970D01*
X465540Y-151900D01*
X465730Y-152970D01*
Y-154030D01*
X465540Y-155100D01*
X465180Y-156030D01*
X464620Y-156830D01*
X463980Y-157370D01*
X463250Y-157500D01*
G01X470250Y-149500D02*
Y-157500D01*
G01X468140Y-149500D02*
X472360D01*
G01X477250D02*
Y-157500D01*
G01X475140Y-149500D02*
X479360D01*
G01X484250Y-157500D02*
X483520Y-157370D01*
X482880Y-156830D01*
X482320Y-156030D01*
X481960Y-155100D01*
X481770Y-154030D01*
Y-152970D01*
X481960Y-151900D01*
X482320Y-150970D01*
X482880Y-150170D01*
X483520Y-149630D01*
X484250Y-149500D01*
X484980Y-149630D01*
X485620Y-150170D01*
X486180Y-150970D01*
X486540Y-151900D01*
X486730Y-152970D01*
Y-154030D01*
X486540Y-155100D01*
X486180Y-156030D01*
X485620Y-156830D01*
X484980Y-157370D01*
X484250Y-157500D01*
G01X488870D02*
Y-149500D01*
X491250Y-156170D01*
X493630Y-149500D01*
Y-157500D01*
G54D14*
G01X206200Y-191100D02*
X497100D01*
Y-313200D01*
X-145400D01*
Y-191100D01*
X242000D01*
G01X495900Y-252500D02*
X-16500D01*
Y-313200D01*
G01Y-252500D02*
Y-191100D01*
G01X155600Y-192000D02*
Y-313000D01*
G01X250400Y-191900D02*
Y-312900D01*
G01X310500Y-142500D02*
Y-155500D01*
G01X331800Y-192500D02*
Y-313500D01*
M02*
